<svg version="1.1" id="Слой_1" xmlns="http://www.w3.org/2000/svg" x="0" y="0" viewBox="0 0 100 61.5" xml:space="preserve"><style>.st0{fill:#3ecf9e}</style><path class="st0" d="M20.6 61.5C9.3 61.5 0 52.2 0 40.8s9.3-20.7 20.6-20.7 20.7 9.3 20.7 20.7S32 61.5 20.6 61.5zm0-37.9c-9.5 0-17.2 7.7-17.2 17.2S11.1 58 20.6 58s17.2-7.7 17.2-17.2c.1-9.5-7.7-17.2-17.2-17.2zm58.7 37.9c-11.4 0-20.7-9.3-20.7-20.7S68 20.2 79.3 20.2 100 29.5 100 40.8s-9.3 20.7-20.7 20.7zm0-37.9c-9.5 0-17.2 7.7-17.2 17.2S69.8 58 79.3 58s17.2-7.7 17.2-17.2c.1-9.5-7.7-17.2-17.2-17.2zm-7.9-7.3H37.3c-.9 0-1.7-.8-1.7-1.7s.8-1.7 1.7-1.7h34.1c.9 0 1.7.8 1.7 1.7s-.8 1.7-1.7 1.7z"/><path class="st0" d="M20.6 42.6c-.3 0-.6-.1-.9-.3-.8-.5-1-1.6-.5-2.4l16.6-26.3c.5-.8 1.6-1 2.4-.5.8.5 1 1.6.5 2.4L22.1 41.8c-.3.5-.9.8-1.5.8zm31-2.8c-.4 0-.8-.1-1.1-.4-.7-.6-.8-1.7-.2-2.4L70 13.5c.6-.7 1.7-.8 2.4-.2.7.6.8 1.7.2 2.4L52.9 39.2c-.3.4-.8.6-1.3.6z"/><path class="st0" d="M47.9 39.3c-.7 0-1.3-.4-1.6-1L30.9 2.4c-.4-.9 0-1.9.9-2.2.9-.4 1.9 0 2.2.9L49.4 37c.4.9 0 1.9-.9 2.2-.1.1-.4.1-.6.1zm-2.2 3.3H20.6c-.9 0-1.7-.8-1.7-1.7s.8-1.7 1.7-1.7h25.1c.9 0 1.7.8 1.7 1.7s-.7 1.7-1.7 1.7z"/><path class="st0" d="M42.2 3.4H27.7c-.9 0-1.7-.8-1.7-1.7S26.7 0 27.7 0h14.5c.9 0 1.7.8 1.7 1.7s-.8 1.7-1.7 1.7zm37.1 39.2c-.7 0-1.4-.5-1.6-1.2l-8-26.3c0-.2-.1-.3-.1-.5V4.1c0-.9.8-1.7 1.7-1.7s1.7.8 1.7 1.7v10.2l8 26c.3.9-.2 1.9-1.1 2.1-.2.1-.4.2-.6.2z"/><path class="st0" d="M81.7 16.1c-.9 0-1.7-.8-1.7-1.7s.8-1.7 1.7-1.7c1.8 0 3.4-1.6 3.4-3.4 0-1.9-1.5-3.4-3.4-3.4H71.4c-.9 0-1.7-.8-1.7-1.7s.8-1.7 1.7-1.7h10.4c3.7 0 6.8 3.1 6.8 6.8s-3.1 6.8-6.9 6.8zM49.3 46.2c-2.9 0-5.3-2.4-5.3-5.3s2.4-5.3 5.3-5.3 5.3 2.4 5.3 5.3-2.3 5.3-5.3 5.3zm0-7.2c-1 0-1.9.9-1.9 1.9 0 1.1.8 1.9 1.9 1.9 1 0 1.9-.9 1.9-1.9 0-1.1-.9-1.9-1.9-1.9z"/></svg>