<svg xmlns="http://www.w3.org/2000/svg" viewBox="0 0 190.9 326.7"><path fill="#36326B" d="M34.1 321c17-16.1 34-32.3 50.9-48.4 27.1-25.8 54.2-51.5 81.3-77.3 6.3-5.9 12.5-11.9 18.8-17.8 7.7-7.3 7.7-21 0-28.3-17-16.1-34-32.3-50.9-48.4C107.1 75 80 49.3 52.9 23.5c-6.3-5.9-12.5-11.9-18.8-17.8-7.6-7.2-20.9-8.1-28.3 0-7.2 7.8-8.1 20.6 0 28.3 17 16.1 34 32.3 50.9 48.4 27.1 25.8 54.2 51.5 81.3 77.3 6.3 5.9 12.5 11.9 18.8 17.8v-28.3c-17 16.1-34 32.3-50.9 48.4-27.1 25.8-54.2 51.5-81.3 77.3-6.3 5.9-12.5 11.9-18.8 17.8-7.6 7.2-7.8 21.1 0 28.3 8.1 7.4 20.1 7.7 28.3 0z"/></svg>