<svg xmlns="http://www.w3.org/2000/svg" viewBox="0 0 90.9 82"><g fill="#36326B"><path d="M89.9 42h-5.2v-6c0-.6-.4-1-1-1H43.9V20.5h12.7c.6 0 1-.4 1-1V1c0-.6-.4-1-1-1H29.2c-.6 0-1 .4-1 1v18.5c0 .6.4 1 1 1h12.7V35h-35c-.6 0-1 .4-1 1v6H1c-.6 0-1 .4-1 1v8c0 .6.4 1 1 1h11.9c.6 0 1-.4 1-1v-8c0-.6-.4-1-1-1h-5v-5h16v5H19c-.6 0-1 .4-1 1v8c0 .6.4 1 1 1h11.9c.6 0 1-.4 1-1v-8c0-.6-.4-1-1-1H26v-5h16v5h-5c-.6 0-1 .4-1 1v8c0 .6.4 1 1 1h11.9c.6 0 1-.4 1-1v-8c0-.6-.4-1-1-1H44v-5h19v5h-5c-.6 0-1 .4-1 1v8c0 .6.4 1 1 1h4.9v5H58c-.6 0-1 .4-1 1v3h-6.1v-3c0-.6-.4-1-1-1H38c-.6 0-1 .4-1 1v8c0 .6.4 1 1 1h11.9c.6 0 1-.4 1-1v-3H57v3c0 .6.4 1 1 1h4.9v5H58c-.6 0-1 .4-1 1v8c0 .6.4 1 1 1h11.9c.6 0 1-.4 1-1v-8c0-.6-.4-1-1-1H65v-5h4.9c.6 0 1-.4 1-1v-8c0-.6-.4-1-1-1H65v-5h4.9c.6 0 1-.4 1-1v-8c0-.6-.4-1-1-1H65v-5h17.8v5H78c-.6 0-1 .4-1 1v8c0 .6.4 1 1 1h11.9c.6 0 1-.4 1-1v-8c0-.6-.5-1-1-1zm-78 2v6H2v-6h9.9zm18 0v6H20v-6h9.9zm18 0v6H38v-6h9.9zM30.2 18.5V2h25.4v16.5H30.2zM48.9 65H39v-6h9.9v6zm20 9v6H59v-6h9.9zm0-15v6H59v-6h9.9zm0-15v6H59v-6h9.9zm20 6H79v-6h9.9v6z"/><path d="M34.1 7.1H37c.6 0 1-.4 1-1s-.4-1-1-1h-2.9c-.6 0-1 .4-1 1s.4 1 1 1zm18-2H39.9c-.6 0-1 .4-1 1s.4 1 1 1h12.2c.6 0 1-.4 1-1s-.4-1-1-1zm0 4.1h-18c-.6 0-1 .4-1 1s.4 1 1 1h18c.6 0 1-.4 1-1s-.4-1-1-1zm-8.2 4.2h-9.8c-.6 0-1 .4-1 1s.4 1 1 1h9.8c.6 0 1-.4 1-1s-.4-1-1-1zm8.2 0h-5.3c-.6 0-1 .4-1 1s.4 1 1 1h5.3c.6 0 1-.4 1-1s-.4-1-1-1z"/></g></svg>