<svg version="1.1" id="Слой_1" xmlns="http://www.w3.org/2000/svg" x="0" y="0" viewBox="0 0 90 65.8" xml:space="preserve"><style>.st0{fill:#3ecf9e}</style><path class="st0" d="M84.8 4.5v-.4c0-2.3-1.8-4.1-4-4.1H49.9C48 0 46.2.9 45 2.3 43.8.9 42 0 40.1 0H9.2C7 0 5.1 1.8 5.1 4v.4C2.2 5.2 0 7.8 0 10.9v43c0 3.7 3 6.7 6.6 6.7h30.8c.3 0 .7.2.7.5.9 2.8 3.4 4.6 6.3 4.6h1.1c2.9 0 5.4-1.9 6.3-4.6.1-.3.4-.5.7-.5h30.8c3.7 0 6.6-3 6.6-6.7v-43c.1-3.1-2.1-5.7-5.1-6.4zM46.2 6.3c0-.4.1-.8.2-1.1.2-.1.4-.3.5-.5.6-1 1.7-1.7 3-1.7h30.8c.3.2.5.6.5 1v46.5c0 .7-.6 1.2-1.2 1.2H49c-1 0-2 .6-2.8 1.3V6.9c0-.1 0-.2-.1-.3.1-.1.1-.2.1-.3zM8.8 4c0-.4.2-.8.5-1h30.8c1.4 0 2.6.8 3.1 2.1.1.2.3.4.5.6 0 .2.1.4.1.7 0 .1 0 .2.1.3 0 .1-.1.2-.1.3v46c-.9-.7-1.9-1.2-3.2-1.3H10c-.7 0-1.2-.6-1.2-1.2V4zM87 54c0 2-1.6 3.7-3.6 3.7H52.6c-1.7 0-3.1 1.1-3.6 2.6s-1.9 2.5-3.4 2.5h-1.1c-1.6 0-3-1-3.4-2.5-.5-1.5-2-2.6-3.6-2.6H6.7C4.6 57.6 3 56 3 54V11c0-1.9 1.4-3.4 3.3-3.6v43.2c0 2.1 1.7 3.7 3.7 3.7h30.4c2.1.1 3.4 2.8 3.4 2.8.2.4.6.7 1.1.7h.1c.4 0 .8-.2 1.1-.6.7-1.2 2.2-2.9 3-2.9H80c2.1 0 3.7-1.7 3.7-3.7V7.3c1.8.2 3.3 1.7 3.3 3.6V54z"/><path class="st0" d="M14.4 11.1h22.8c.6 0 1-.4 1-1s-.4-1-1-1H14.4c-.6 0-1 .4-1 1s.5 1 1 1zm0 8.7h11.7c.6 0 1-.4 1-1s-.4-1-1-1H14.4c-.6 0-1 .4-1 1s.5 1 1 1zm22.8-2h-7c-.6 0-1 .4-1 1s.4 1 1 1h7c.6 0 1-.4 1-1s-.4-1-1-1zM14.4 28.5h22.8c.6 0 1-.4 1-1s-.4-1-1-1H14.4c-.6 0-1 .4-1 1s.5 1 1 1zm0 8.7h4.1c.6 0 1-.4 1-1s-.4-1-1-1h-4.1c-.6 0-1 .4-1 1s.5 1 1 1zm22.8-2H22.5c-.6 0-1 .4-1 1s.4 1 1 1h14.7c.6 0 1-.4 1-1s-.4-1-1-1zM14.4 45.9h22.8c.6 0 1-.4 1-1s-.4-1-1-1H14.4c-.6 0-1 .4-1 1s.5 1 1 1zM70 11.1h5.6c.6 0 1-.4 1-1s-.4-1-1-1H70c-.6 0-1 .4-1 1s.4 1 1 1zm-17.2 0h13c.6 0 1-.4 1-1s-.4-1-1-1h-13c-.6 0-1 .4-1 1s.4 1 1 1zm0 8.7h22.8c.6 0 1-.4 1-1s-.4-1-1-1H52.8c-.6 0-1 .4-1 1s.4 1 1 1zm0 8.7h2.9c.6 0 1-.4 1-1s-.4-1-1-1h-2.9c-.6 0-1 .4-1 1s.4 1 1 1zm22.8-2H59.8c-.6 0-1 .4-1 1s.4 1 1 1h15.7c.6 0 1-.4 1-1s-.4-1-.9-1zm0 8.7H52.8c-.6 0-1 .4-1 1s.4 1 1 1h22.8c.6 0 1-.4 1-1s-.5-1-1-1zm0 8.7H52.8c-.6 0-1 .4-1 1s.4 1 1 1h22.8c.6 0 1-.4 1-1s-.5-1-1-1z"/></svg>