<svg version="1.1" id="Слой_1" xmlns="http://www.w3.org/2000/svg" x="0" y="0" viewBox="0 0 39.6 47.2" xml:space="preserve"><style>.st0{fill:#27a9bf}</style><path class="st0" d="M37.4 37.3c-.1-4.2-1.2-8.5-3.1-9.1V15c.1-.1.1-.3.1-.4 0-.1-.1-.1-.1-.2V6.3c0-.9-.7-1.6-1.6-1.6h-5.9v-2c0-1.5-1.2-2.7-2.7-2.7h-8.5c-1.5 0-2.7 1.2-2.7 2.7v2h-6c-.9 0-1.6.7-1.6 1.6v21.9c-2 .6-3 4.9-3.1 9.1C1 37.6 0 38.7 0 40v4.6c0 1.5 1.2 2.7 2.7 2.7h34.2c1.5 0 2.7-1.2 2.7-2.7V40c0-1.3-.9-2.4-2.2-2.7zm-1 0h-2.1v-7.9c1 .7 2.1 3.6 2.1 7.9zm-5.3 0H6.3V15.4c.9.2 1.8.4 2.8.6v.6c0 1.3 1.1 2.4 2.4 2.4s2.4-1.1 2.4-2.4a56.33 56.33 0 0 0 11.6 0c0 1.3 1.1 2.4 2.4 2.4s2.4-1.1 2.4-2.4V16c1-.2 1.9-.4 2.8-.6v21.9h-2zm-2.7 1v8H11.2v-8h17.2zM10.1 16.5v-2c0-.8.6-1.4 1.4-1.4s1.4.6 1.4 1.4v2c0 .8-.6 1.4-1.4 1.4s-1.4-.6-1.4-1.4zm16.6 0v-2c0-.8.6-1.4 1.4-1.4s1.4.6 1.4 1.4v2c0 .8-.6 1.4-1.4 1.4s-1.4-.6-1.4-1.4zM13.9 2.7c0-.9.8-1.7 1.7-1.7h8.5c.9 0 1.7.8 1.7 1.7v2H13.9v-2zm-7 3h25.8c.3 0 .6.3.6.6v8.1c-.9.2-1.9.4-2.8.6v-.4c0-1.3-1.1-2.4-2.4-2.4s-2.4 1.1-2.4 2.4v1.1c-3.8.3-7.9.3-11.7 0v-1.1c0-1.3-1.1-2.4-2.4-2.4s-2.4 1.1-2.4 2.4v.4c-1-.2-1.9-.4-2.8-.6V6.3c-.1-.4.2-.6.5-.6zM5.3 29.3v7.9H3.2c.1-4.2 1.1-7.1 2.1-7.9zM1 44.6V40c0-.9.8-1.7 1.7-1.7h5.4v8H2.7c-.9 0-1.7-.8-1.7-1.7zm8.1 1.7v-8h1.1v8H9.1zm20.3 0v-8h1.1v8h-1.1zm9.2-1.7c0 .9-.8 1.7-1.7 1.7h-5.4v-8h5.4c.9 0 1.7.8 1.7 1.7v4.6z"/><path class="st0" d="M28.1 24.8H11.5c-.3 0-.5.2-.5.5v3.3c0 1.5 1.2 2.7 2.7 2.7H26c1.5 0 2.7-1.2 2.7-2.7v-3.3c-.1-.3-.3-.5-.6-.5zM26 30.3H13.7c-.9 0-1.7-.8-1.7-1.7v-2.8h15.6v2.8c0 1-.7 1.7-1.6 1.7z"/></svg>