<svg version="1.1" id="Слой_1" xmlns="http://www.w3.org/2000/svg" x="0" y="0" viewBox="0 0 60 60" xml:space="preserve"><style>.st0{fill:#3ecf9e}</style><path class="st0" d="M14 37c-.6 0-1 .4-1 1v5c0 .6.4 1 1 1s1-.4 1-1v-5c0-.6-.4-1-1-1z"/><path class="st0" d="M59 11h-3V1c0-.6-.4-1-1-1h-6c-.6 0-1 .4-1 1v10H1c-.6 0-1 .4-1 1v36c0 .6.4 1 1 1h5v3c0 4.4 3.6 8 8 8s8-3.6 8-8v-3h37c.6 0 1-.4 1-1V12c0-.6-.4-1-1-1zm-5 15h-4V6h4v20zm-.5 2L52 31.5 50.5 28h3zM50 2h4v2h-4V2zM5.6 13L2 16.6V13h3.6zM7 14.4V18H3.4L7 14.4zM20 52c0 3.3-2.7 6-6 6s-6-2.7-6-6V40c0-3.3 2.7-6 6-6s6 2.7 6 6v12zm38-5H22v-7c0-4.4-3.6-8-8-8s-8 3.6-8 8v7H2V20h6c.6 0 1-.4 1-1v-6h39v14c0 .1 0 .2.1.3l3 7c.2.5.8.7 1.3.5.2-.1.4-.3.5-.5l3-7c0-.1.1-.2.1-.3V13h2v34z"/><path class="st0" d="M55 43h-2c-.6 0-1 .4-1 1s.4 1 1 1h2c.6 0 1-.4 1-1s-.4-1-1-1zm-6 0h-2c-.6 0-1 .4-1 1s.4 1 1 1h2c.6 0 1-.4 1-1s-.4-1-1-1zm-8.2-24.6c-.3-.4-1-.5-1.4-.1L29 26.7l-9.4-8.4c-.3-.3-.9-.3-1.2-.1l-13 9c-.5.3-.6.9-.3 1.4.3.5.9.6 1.4.3l12.4-8.5 9.4 8.5c.4.3.9.3 1.3 0l11-9c.5-.5.5-1.1.2-1.5zm-3 13.1c-.3-.5-1-.6-1.4-.3l-.3.3-5 8c-.3.5-.2 1.1.3 1.4.2.1.3.2.5.2h10c.6 0 1-.4 1-1 0-.2-.1-.4-.2-.5l-4.9-8.1zm-4 7.5l3.2-5.1 3.2 5.1h-6.4z"/></svg>