<svg version="1.1" id="Слой_1" xmlns="http://www.w3.org/2000/svg" x="0" y="0" viewBox="0 0 58 60" xml:space="preserve"><style>.st0{fill:#27a9bf}</style><path class="st0" d="M1 48c-.6 0-1 .4-1 1v6c0 .6.4 1 1 1h56c.6 0 1-.4 1-1v-6c0-.6-.4-1-1-1h-2V33h2c.6 0 1-.4 1-1v-6c0-.6-.4-1-1-1h-2V8h2c.6 0 1-.4 1-1V1c0-.6-.4-1-1-1h-6c-.6 0-1 .4-1 1v2H33V1c0-.6-.4-1-1-1h-6c-.6 0-1 .4-1 1v2H8V1c0-.6-.4-1-1-1H1C.4 0 0 .4 0 1v6c0 .6.4 1 1 1h2v17H1c-.6 0-1 .4-1 1v6c0 .6.4 1 1 1h2v15H1zm55 6h-2v-2h-2v2h-2v-2h-2v2h-2v-2h-2v2h-2v-2h-2v2h-2v-2h-2v2h-2v-2h-2v2h-2v-2h-2v2h-2v-2h-2v2h-2v-2h-2v2h-2v-2h-2v2h-2v-2h-2v2h-2v-2H8v2H6v-2H4v2H2v-4h54v4zm0-23h-4v-4h4v4zM52 2h4v4h-4V2zM27 2h4v4h-4V2zM2 2h4v4H2V2zm0 25h4v4H2v-4zm3 6h2c.6 0 1-.4 1-1v-6c0-.6-.4-1-1-1H5V8h2c.6 0 1-.4 1-1V5h17v2c0 .6.4 1 1 1h6c.6 0 1-.4 1-1V5h17v2c0 .6.4 1 1 1h2v17h-2c-.6 0-1 .4-1 1v6c0 .6.4 1 1 1h2v15H5V33z"/><path class="st0" d="M31 29h2v2h-2z"/><path class="st0" d="M43 11H15c-.6 0-1 .4-1 1v12c0 .6.4 1 1 1h4c.6 0 1-.4 1-1v-5h5v20h-5c-.6 0-1 .4-1 1v4c0 .6.4 1 1 1h18c.6 0 1-.4 1-1v-4c0-.6-.4-1-1-1h-5v-6h-2v7c0 .6.4 1 1 1h5v2H21v-2h5c.6 0 1-.4 1-1V18c0-.6-.4-1-1-1h-7c-.6 0-1 .4-1 1v5h-2V13h26v10h-2v-5c0-.6-.4-1-1-1h-7c-.6 0-1 .4-1 1v9h2v-8h5v5c0 .6.4 1 1 1h4c.6 0 1-.4 1-1V12c0-.6-.4-1-1-1zM9 58h36v2H9zm38 0h2v2h-2z"/></svg>