<svg xmlns="http://www.w3.org/2000/svg" viewBox="0 0 89.9 54.7"><path d="M89.9 26.1c0-.8-.4-1.6-1.2-2L46 .3c-.7-.4-1.5-.4-2.2 0L1.2 24.1c-.7.4-1.2 1.2-1.2 2s.4 1.6 1.2 2l20.2 11.3v3.5c0 6.8 11.8 10.4 23.5 10.4s23.5-3.6 23.5-10.4v-3.5L85.3 30v12.1c0 1.3 1 2.3 2.3 2.3s2.3-1 2.3-2.3v-16zm-26 10.4c-9-5.2-29-5.2-37.9 0v-7.3c0-2 6.7-5.8 19-5.8s19 3.8 19 5.8l-.1 7.3zm-19 12.1c-12.3 0-19-3.9-19-5.8s6.7-5.8 19-5.8 19 3.8 19 5.8-6.7 5.8-19 5.8zm23.5-14.4v-5c0-13.6-47-13.6-47 0v5L6.9 26.1l38-21.2 38 21.2-14.5 8.1zm19.2 11c-1.3 0-2.3 1-2.3 2.3v4.9c0 1.3 1 2.3 2.3 2.3s2.3-1 2.3-2.3v-5c0-1.2-1-2.2-2.3-2.2z" fill="#27A9BF"/></svg>