<svg xmlns="http://www.w3.org/2000/svg" viewBox="0 0 85 64"><path d="M72 27.2C71.6 12.1 58.5 0 42.5 0S13.5 12.1 13 27.2C5.7 28.4 0 36.1 0 45.5 0 55.7 6.7 64 14.9 64h1.7c3 0 5.4-2.8 5.4-6.3V33.3c0-3.3-2.2-6.1-5-6.3.5-12.8 11.7-23 25.5-23 13.7 0 25 10.2 25.5 23-2.8.3-5 3-5 6.3v24.3c0 3.5 2.4 6.3 5.4 6.3h1.7C78.3 64 85 55.7 85 45.5c0-9.4-5.7-17.2-13-18.3zM4 45.5c0-6.2 2.9-11.4 7-13.5v27c-4.1-2.1-7-7.3-7-13.5zm14-12.2v24.3c0 1.3-.7 2.3-1.4 2.3H15V31h1.6c.7 0 1.4 1 1.4 2.3zm49 24.4V33.3c0-1.3.7-2.3 1.4-2.3H70v29h-1.6c-.7 0-1.4-1-1.4-2.3zm7 1.3V32c4.1 2.1 7 7.4 7 13.5S78.1 56.9 74 59z" fill="#27a9bf"/></svg>