<svg xmlns="http://www.w3.org/2000/svg" viewBox="0 0 100 100"><path fill="#21966E" d="M28.6 0C12.8 0 0 12.6 0 28.2c0 4.8 1.2 9.4 3.6 13.6-.5 2.9-.8 5.8-.8 8.8 0 26 21.4 47.1 47.8 47.1 2.7 0 5.4-.2 8.1-.6 4 2 8.4 3 12.9 3 15.7 0 28.6-12.6 28.6-28.2 0-4.2-.9-8.2-2.7-11.9.6-3.1 1-6.2 1-9.4 0-26-21.5-47.1-47.8-47.1-2.5 0-5 .2-7.4.6C38.7 1.4 33.7 0 28.6 0zm21.6 18.8c4.1 0 7.7.4 10.7 1.4 3 .9 5.6 2.1 7.6 3.7s3.6 3.2 4.5 4.9c1 1.7 1.4 3.5 1.4 5.2 0 1.6-.7 3-1.9 4.3s-2.8 1.9-4.7 1.9c-1.7 0-3-.4-3.9-1.2-.9-.8-1.8-1.9-2.8-3.6-1.1-2.1-2.5-3.9-4.1-5.1-1.5-1.1-4.2-1.7-7.7-1.7-3.3 0-6 .6-7.9 1.9-1.9 1.2-2.8 2.7-2.8 4.4 0 1 .3 1.9.9 2.6.7.8 1.5 1.4 2.7 2 1.2.6 2.4 1.1 3.7 1.4 1.3.3 3.4.9 6.4 1.6 3.7.8 7.1 1.6 10.1 2.6s5.7 2.2 7.8 3.6c2.2 1.4 4 3.2 5.2 5.4s1.8 4.8 1.8 7.9c0 3.7-1.1 7.1-3.2 10.1s-5.3 5.3-9.3 7c-4 1.6-8.8 2.4-14.3 2.4-6.6 0-12.1-1.1-16.4-3.4-3.1-1.6-5.6-3.9-7.6-6.6-2-2.8-2.9-5.5-2.9-8.1 0-1.6.7-3.1 1.9-4.2 1.3-1.2 2.8-1.8 4.8-1.8 1.6 0 3 .5 4.1 1.4 1.1.9 2 2.2 2.7 3.9.8 1.8 1.7 3.3 2.6 4.6.9 1.2 2.2 2.2 3.8 2.9 1.7.8 3.9 1.2 6.7 1.2 3.8 0 6.9-.8 9.2-2.4 2.3-1.5 3.4-3.4 3.4-5.6 0-1.8-.6-3.2-1.8-4.3-1.2-1.1-2.9-2-4.9-2.6-2.1-.6-4.9-1.3-8.4-2.1-4.8-1-8.8-2.2-12-3.6-3.3-1.4-5.9-3.3-7.9-5.7-2-2.4-3-5.4-3-9 0-3.4 1.1-6.5 3.1-9.2 2-2.6 5-4.7 8.9-6.1 3.8-1.4 8.4-2 13.5-2z"/></svg>