<svg xmlns="http://www.w3.org/2000/svg" viewBox="0 0 90 80"><path fill="#27A9BF" d="M30.7.038c-1.5.2-2.7 1.5-2.7 3v7H5c-1.5 0-2.7.6-3.5 1.5s-1.5 2-1.5 3.5v59c0 1.5.4 3.2 1.6 4.4 1.2 1.2 2.9 1.7 4.4 1.7h78c1.5 0 3.2-.4 4.4-1.7 1.2-1.2 1.6-2.8 1.6-4.3v-59c0-1.5-.7-2.7-1.5-3.5s-2-1.5-3.5-1.5H62v-7c0-1.6-1.4-3-3-3-9.4-.1-18.9-.1-28.3-.1zm3.3 6h22v4H34v-4zm-28 10h78v19.2c-.2 1-1.1 2.1-3 3.1s-4.6 1.6-7 1.6H53v-3c0-1.3-.5-2.4-1.2-3.3s-1.8-1.7-3.4-1.7h-6.7c-1.6 0-2.7.8-3.4 1.7s-1.2 2-1.2 3.3v3H16c-2.4 0-5-.6-7-1.6-1.9-1-2.8-2.2-3-3.1v-19.2zm37 22h4v10h-4v-10zm-37 5.5c.1 0 .1.1.2.1 3 1.5 6.4 2.3 9.8 2.3h21v3c0 1.3.5 2.4 1.2 3.3.7.9 1.8 1.7 3.4 1.7h6.7c1.6 0 2.7-.8 3.4-1.7.7-.9 1.2-1.9 1.2-3.3v-3h21c3.4 0 6.8-.8 9.8-2.3.1 0 .1-.1.2-.1v30.4H6v-30.4z"/></svg>