<svg xmlns="http://www.w3.org/2000/svg" viewBox="0 0 68.7 79.5"><path fill="#36326B" d="M24.4 77.9c4 1 8.2 1.6 12.6 1.6 4.7 0 12.3-1.5 12.3-1.5l-.1-3.6s.1-7 .1-13.7c0-4.7-1.6-7.7-3.4-9.3C57 50.2 68.7 46 68.7 26.8c0-5.5-1.9-9.9-5.1-13.4.5-1.3 2.2-6.4-.6-13.3 0 0-4.2-1.3-13.7 5.1-4-1.1-8.3-1.7-12.5-1.7-4.3 0-8.5.6-12.5 1.7C14.7-1.3 10.5.1 10.5.1c-2.7 6.9-1 12-.5 13.2-3.2 3.5-5.1 8-5.1 13.4 0 19.2 11.7 23.4 22.8 24.7-1.4 1.2-2.7 3.5-3.2 6.7-2.8 1.3-10.1 3.5-14.6-4.2 0 0-2.6-4.8-7.7-5.2 0 0-4.9-.1-.3 3 0 0 3.3 1.5 5.6 7.3 0 0 2.9 9.7 16.8 6.7 0 4.2.1 7.3.1 8.5"/></svg>