<svg xmlns="http://www.w3.org/2000/svg" viewBox="0 0 65.7 37.5"><path fill="#36326B" d="M65.4 33.9c-.1-.2-.2-.3-.2-.4-1.1-2.1-3.3-4.6-6.5-7.6l-.1-.1c-1.5-1.4-2.4-2.3-2.8-2.8-.7-.9-.9-1.8-.5-2.8.3-.7 1.3-2.2 3.1-4.5.9-1.2 1.7-2.2 2.2-2.9 3.9-5.2 5.7-8.6 5.1-10.1l-.2-.3c-.1-.2-.5-.4-1.1-.6s-1.3-.2-2.2-.1l-9.9.1h-.7c-.2 0-.4.1-.4.1-.1 0-.1.1-.2.1l-.1.1-.4.4c-.1.2-.3.4-.3.6-1.1 2.8-2.3 5.3-3.7 7.7-.8 1.4-1.6 2.6-2.3 3.7-.7 1-1.3 1.8-1.8 2.3s-.9.9-1.3 1.2c-.4.3-.7.4-.9.4s-.4-.1-.6-.1c-.3-.2-.6-.5-.8-.8-.2-.4-.3-.8-.4-1.3-.1-.5-.1-1-.1-1.4v-3c0-.9 0-1.8.1-2.8 0-1 .1-1.8.1-2.4V4.7c0-.7 0-1.2-.1-1.6s-.2-.7-.4-1.1-.4-.6-.7-.8-.7-.3-1.1-.5C35 .2 33.5 0 31.6 0c-4.2 0-7 .2-8.2.8-.5.3-.9.6-1.3 1-.4.5-.5.8-.2.8 1.4.2 2.3.7 2.9 1.5l.2.4c.2.3.3.8.5 1.6s.3 1.6.3 2.5c.1 1.7.1 3.1 0 4.3s-.2 2.1-.3 2.8c-.1.7-.3 1.2-.5 1.6s-.3.7-.4.8l-.2.2c-.3.1-.6.2-.9.2s-.7-.2-1.2-.5-.9-.8-1.4-1.3c-.5-.6-1-1.3-1.7-2.3-.6-1-1.3-2.2-1.9-3.6l-.5-1L15.4 7c-.6-1.2-1.1-2.4-1.6-3.5-.2-.5-.5-.8-.8-1.1l-.2-.1c-.1-.1-.3-.2-.5-.3-.3-.1-.5-.2-.8-.2l-9.3-.1c-1 0-1.6.2-2 .7l-.1.2c-.1.1-.1.3-.1.5 0 .3.1.6.2.9 1.4 3.2 2.9 6.3 4.5 9.3s3 5.4 4.2 7.2 2.4 3.5 3.6 5.2 2 2.7 2.4 3.1c.4.5.7.8.9 1l.9.8c.5.5 1.4 1.2 2.4 2 1.1.8 2.2 1.5 3.5 2.3 1.3.7 2.8 1.3 4.5 1.8s3.4.7 5 .6H36c.8-.1 1.4-.3 1.8-.8l.1-.2c.1-.1.2-.3.3-.6s.1-.6.1-.9c0-1 .1-1.9.2-2.7.2-.8.4-1.4.6-1.8.2-.4.5-.7.7-1 .3-.3.5-.4.6-.5s.2-.1.3-.1c.5-.2 1.2 0 1.9.5s1.4 1.2 2.1 2c.7.8 1.4 1.7 2.3 2.7.9 1 1.7 1.7 2.4 2.2l.7.4c.5.3 1 .5 1.8.8.7.2 1.4.3 1.9.2l8.8-.1c.9 0 1.5-.1 2-.4.5-.3.8-.6.9-.9s.1-.7 0-1.2c0-.6-.1-.9-.1-1z"/></svg>