<svg version="1.1" id="Слой_1" xmlns="http://www.w3.org/2000/svg" x="0" y="0" viewBox="0 0 60 48" xml:space="preserve"><style>.st0{fill:#3ecf9e}</style><path class="st0" d="M30 43c7.2 0 13-5.8 13-13s-5.8-13-13-13-13 5.8-13 13 5.8 13 13 13zm0-24c6.1 0 11 4.9 11 11s-4.9 11-11 11-11-4.9-11-11 4.9-11 11-11z"/><path class="st0" d="M23 31c.6 0 1-.4 1-1 0-3.3 2.7-6 6-6 .6 0 1-.4 1-1s-.4-1-1-1c-4.4 0-8 3.6-8 8 0 .6.4 1 1 1z"/><path class="st0" d="M59 0H43c-.6 0-1 .4-1 1v11H24V9c0-.6-.4-1-1-1h-6c-.6 0-1 .4-1 1v3h-2V9c0-.6-.4-1-1-1H3c-.6 0-1 .4-1 1v3H1c-.6 0-1 .4-1 1v34c0 .6.4 1 1 1h58c.6 0 1-.4 1-1V1c0-.6-.4-1-1-1zM44 2h14v10H44V2zM30 14c8.8 0 16 7.2 16 16s-7.2 16-16 16-16-7.2-16-16 7.2-16 16-16zm-12-4h4v2h-4v-2zM4 10h8v2H4v-2zM2 46V14h19.8C13 18.5 9.5 29.3 14 38.2c1.7 3.4 4.5 6.1 7.8 7.8H2zm56 0H38.2C47 41.5 50.5 30.7 46 21.8c-1.7-3.4-4.5-6.1-7.8-7.8H58v32z"/><path class="st0" d="M55 4h-8c-.6 0-1 .4-1 1v4c0 .6.4 1 1 1h8c.6 0 1-.4 1-1V5c0-.6-.4-1-1-1zm-1 4h-6V6h6v2zm-8 33c0 1.7 1.3 3 3 3s3-1.3 3-3-1.3-3-3-3-3 1.3-3 3zm3-1c.6 0 1 .4 1 1s-.4 1-1 1-1-.4-1-1 .4-1 1-1zM5 40c-.6 0-1 .4-1 1v2c0 .6.4 1 1 1s1-.4 1-1v-2c0-.6-.4-1-1-1zm4 0c-.6 0-1 .4-1 1v2c0 .6.4 1 1 1s1-.4 1-1v-2c0-.6-.4-1-1-1z"/></svg>