<svg xmlns="http://www.w3.org/2000/svg" viewBox="0 0 61.1 61.4"><g fill="#36326B"><path d="M30.6 14.8c-8.8 0-16 7.1-16 15.8s7.2 15.8 16 15.8 16-7.1 16-15.8-7.2-15.8-16-15.8zm0 25.8c-5.6 0-10.1-4.5-10.1-10s4.6-10 10.1-10c5.6 0 10.1 4.5 10.1 10s-4.5 10-10.1 10z"/><path d="M43.5 0H17.6C7.9 0 0 7.9 0 17.6v26.2c0 9.7 7.9 17.6 17.6 17.6h25.9c9.7 0 17.6-7.9 17.6-17.6V17.6C61.1 7.9 53.2 0 43.5 0zm11.8 43.8c0 6.5-5.3 11.8-11.8 11.8H17.6c-6.5 0-11.8-5.3-11.8-11.8V17.6c0-6.5 5.3-11.8 11.8-11.8h25.9c6.5 0 11.8 5.3 11.8 11.8v26.2z"/><circle cx="46.9" cy="14.1" r="3.8"/></g></svg>