<svg xmlns="http://www.w3.org/2000/svg" viewBox="0 0 90.4 59.9"><path d="M28.5 34.6c-9.3 0-16.8-7.8-16.8-17.3S19.2 0 28.5 0s16.8 7.8 16.8 17.3-7.5 17.3-16.8 17.3zm0-3.1c7.6 0 13.8-6.4 13.8-14.3S36.1 3 28.5 3 14.7 9.4 14.7 17.3s6.2 14.2 13.8 14.2zm11.5 25H6.3C4.5 56.5 3 55 3 53.2v-1.8c0-1.8.9-3.4 2.4-4.3l13.8-8.5c2.6 1.1 5.4 1.6 8.2 1.6s5.6-.6 8.2-1.6l5.1 3.1 2.2-2.2-6.4-3.9-.7-.4c-2.6 1.3-5.4 2-8.5 2s-5.9-.7-8.5-2l-.7.4-14.2 8.8C1.5 45.9 0 48.5 0 51.3v1.8c0 3.5 2.8 6.4 6.4 6.4h36.2" fill="#3ECF9E"/><path d="M43.8 40.3c.5-.5 1-.4 1.3.2l.1.4c.2.7 0 1.7-.4 2.2l-4.7 5.4c-.5.5-.5 1.4 0 2l4.7 5.4c.5.5.7 1.5.4 2.2l-.2.3c-.2.7-.8.8-1.3.2l-5.5-6.5c-.5-.5-.8-1.5-.8-2.3V49c0-.7.4-1.8.8-2.3l5.6-6.4zm14 4.2c.4.6.6 2.3.6 2.3 0 .4.1 1.1.1 1.5V57c0 .4-.3.8-.8.8H57c-.4 0-.8-.3-.8-.8v-9.8s0-.5-.1-.8-.3-.4-.6-.4c-.6 0-1.2.8-1.2.8-.3.3-.5.9-.5 1.4v9c0 .4-.3.8-.8.8h-.5c-.4 0-.8-.3-.8-.8v-9.8s0-.5-.1-.8-.3-.4-.6-.4c-.6 0-1.2.8-1.2.8-.3 0-.6.6-.6 1v9c0 .4-.3.8-.8.8h-.7c-.4 0-.8-.3-.8-.8V44.7c0-.4.3-.8.8-.8h.3c.4 0 .8.3.8.7s.3.5.5.1c0 0 .3-.4.7-.8.4-.3.8-.5 1.4-.5 1 0 1.6 1.1 1.6 1.1.2.4.6.4.8.1 0 0 .3-.4.7-.7s.9-.5 1.4-.5c.9.2 1.5.5 1.9 1.1zm4.3-6.3c.4-.1.8.2.8.6V57c0 .4-.3.8-.8.8h-.8c-.4 0-.8-.3-.8-.8V39.2c0-.4.3-.8.8-.9l.8-.1zm7.3 5.8c.4 0 .6.3.3.6l-3.6 4.9c-.2.3-.3.9 0 1.3l4.1 6.4c.2.4.1.6-.3.6h-1.4c-.4 0-.9-.3-1.2-.6l-3.9-6.3c-.2-.4-.2-.9 0-1.3l3.5-5c.2-.3.8-.6 1.2-.6h1.3zm4.5 15c-.2.6-1 1-1.6.8s-1-.8-.8-1.4l7.4-18.7c.2-.6 1-1 1.6-.8.8.2 1 .8.8 1.4L73.9 59zm8.9-18.3c.2-.7.8-.8 1.2-.2l5.6 6.5c.5.5.8 1.5.8 2.3v.7c0 .7-.4 1.7-.8 2.3l-5.5 6.5c-.5.5-1 .4-1.3-.2l-.1-.4c-.2-.7-.1-1.6.4-2.2l4.7-5.3c.5-.5.5-1.4 0-1.9l-4.7-5.3c-.4-.5-.6-1.5-.4-2.2l.1-.6z" fill="#27A9BF"/></svg>