<svg xmlns="http://www.w3.org/2000/svg" viewBox="0 0 365 224.5"><path fill="#EFCCA3" d="M305.4 70.1c-.6-12.5 1.1-23.6-4.6-33C287.2 13.7 253 0 184.6 0v2h-1.4 1.4V0C116.3 0 80.4 13.7 66.7 37.3c-5.4 9.7-4.8 20.5-5.7 33-.6 10-5.1 20.5-3.1 31.9 2.3 14.8 3.1 29.6 5.4 43.3 1.7 11.1 17.1 20.5 18.5 31.1 4 29.1 34.2 42.4 102.6 42.4v2.3h-1.7 2V219c68.4 0 97.4-13.4 101.1-42.4 1.4-10.8 15.7-19.9 17.4-31.1 2.3-13.7 3.1-28.5 5.4-43.3 2-11.3-2.6-22.1-3.2-32.1z"/><path fill="#CCAC8D" d="M183.5 80.3c12.2.3 20.8 8 28.8 15.1 9.4 8.3 25.4 14 31.9 21.1 6.6 7.1 15.1 14.2 18.2 25.4 3.1 11.1 4 25.4 4 29.1 0 3.7 2 2.8 7.7 0 13.4-6.6 28.2-24.2 28.2-24.2-1.7 11.1-16.2 21.1-17.7 31.6-3.4 29.1-31.6 43-101.4 43h-.3 1.7"/><path fill="#CCAC8D" d="M228.5 58.1c2.6 8.8 11.7 38.7-6 28.8 0 0 7.4 4.3 12 20.5 4.8 16.2 16.5 18.2 16.5 18.2s19.1 3.7 33.3-8.5c12-10.3 14-28.5 8.8-42.4-5.1-13.7-14.2-18-27.6-20.9-13.3-3.1-40.1-5.7-37 4.3z"/><ellipse transform="rotate(-27.646 262.43 90.596)" cx="262.4" cy="90.6" rx="25.1" ry="25.1"/><path fill="#FFFFFF" d="M255.9 72.9c3.6 0 6.6 2.9 6.6 6.6 0 3.6-2.9 6.6-6.6 6.6-3.6 0-6.6-2.9-6.6-6.6 0-3.6 2.9-6.6 6.6-6.6z"/><path fill="#EFCCA3" d="M224.2 89.5s22.5 15.4 34.8 30.5c12.2 15.1 12 17.9 12 17.9l-8.8 4s-12.5-23.6-27.9-32.5c-15.7-8.8-17.4-16.2-17.4-16.2l7.3-3.7z"/><path fill="#CCAC8D" d="M184.4 80.3c-12.2.3-21.4 8-29.6 15.1-9.4 8.3-25.9 14-32.5 21.1-6.6 7.1-15.4 14.2-18.5 25.4-3.1 11.1-4.3 25.4-4.3 29.1 0 3.7.6 4-7.7 0-13.4-6.3-28.2-24.2-28.2-24.2 1.7 11.1 16.2 21.1 17.7 31.6 4 29.1 32.2 43 102 43h1.4"/><path fill="#56332B" d="M250.4 128.5c-13.6-16.8-35.6-32.5-66-32.5h-.3c-30.5 0-52.4 15.7-66.1 32.5-14.2 17.4-13.1 24.2-13.1 40.7 0 59.8 21.1 42.7 35 50.1 14.2 7.1 29.1 4.8 44.2 4.8h.3c15.4 0 29.9 2 44.2-5.1 14-7.1 35 10.5 35-49.3.2-16.4 1.1-23.8-13.2-41.2z"/><path fill="#442823" d="M182.9 110.8s-2 27.6-6 33l7.4-1.7-1.4-31.3z"/><path fill="#442823" d="M184.9 110.8s2 27.6 6 33l-7.4-1.7 1.4-31.3z"/><path fill="#56332B" d="M161 104.3c-2.8-6.6 7.4-17.1 23.6-17.4 16.2 0 26.5 10.5 23.6 17.4-2.8 6.8-13.1 8.8-23.6 9.1-10.2-.3-20.8-2.3-23.6-9.1z"/><path d="M184.6 110.8c0-1.1 9.7-1.4 14.8-4.8 0 0-10.5 3.4-12.8 2-2.3-1.1-2.8-4.6-2.8-4.6s-.9 3.4-2.6 4.6c-2 1.1-14-2-14-2s16 4 16 4.8c0 .9-.3 3.7-.3 5.7 0 7.1 0 24.8 1.1 26.2 1.7 2.6 1.1-19.1 1.1-26.2-.2-2.3-.2-4.5-.5-5.7z"/><path fill="#7F4A41" d="M185.2 149c4.8 0 13.4 3.4 21.1 8.8-7.4-8.3-16.2-14-21.1-14-5.1 0-16 6.3-23.6 15.4 7.9-6.2 18.2-10.2 23.6-10.2z"/><path fill="#442823" d="M183.2 199.4c-10.8 0-21.4-3.4-31.1-6-2-.6-4 .9-6 .3-17.9-5.7-32.5-15.4-41.3-27.6v2.8c0 59.8 21.1 43 35 50.1 14.2 7.1 29.1 4.8 44.2 4.8h.3c15.4 0 29.9 2 44.2-5.1 14-7.1 35 10.3 35-49.6 0-2.3 0-4.6.3-6.6-8.3 13.4-23.4 23.9-42.2 30.2-1.7.6-5.7-.9-7.4-.6-10.2 3.6-19.3 7.3-31 7.3z"/><path fill="#442823" d="M156.1 167.2s-7.1 21.4-2.3 30.8l-6.6-2.8c.1-.1 5-21.7 8.9-28zm56.5 0s7.1 21.4 2.3 30.8l6.6-2.8c-.1-.1-5.2-21.7-8.9-28z"/><path fill="#CCAC8D" d="M137.9 58.1c-2.6 8.8-11.7 38.7 6 28.8 0 0-7.4 4.3-12 20.5s-16.5 18.2-16.5 18.2-19.1 3.7-33.3-8.5c-12-10.3-14-28.5-8.8-42.4 5.1-14 14.2-17.9 27.6-20.8 13.4-3.2 39.9-5.8 37 4.2z"/><path d="M184.4 143.9c7.7 0 31.6 16.5 31.9 36.7v-1.1c0-21.1-19.4-37.9-31.9-37.9s-31.9 17.1-31.9 37.9v1.1c.2-20.2 24.2-36.7 31.9-36.7z"/><path fill="#331712" d="M188.4 96.1c1.2-.3 2.7 1.3 3.3 3.6.6 2.3.1 4.4-1.1 4.7-1.2.3-2.7-1.3-3.3-3.6s-.1-4.3 1.1-4.7zm-9.9.1c1.2.4 1.6 2.5.9 4.8-.7 2.3-2.2 3.8-3.4 3.4-1.2-.4-1.6-2.5-.9-4.8.6-2.2 2.2-3.8 3.4-3.4z"/><ellipse transform="rotate(-22.141 105.44 90.591)" cx="105.4" cy="90.6" rx="25.1" ry="25.1"/><path fill="#FFFFFF" d="M112 72.9c3.6 0 6.6 2.9 6.6 6.6 0 3.6-2.9 6.6-6.6 6.6-3.6 0-6.6-2.9-6.6-6.6 0-3.6 3-6.6 6.6-6.6z"/><path fill="#7F4A41" d="M191.8 90.9c0-.3-6.6 2.8-8.3 3.1-1.7-.3-8.3-3.4-8.3-3.1h16.6z"/><path fill="#EFCCA3" d="M141.9 89.5s-22.5 15.4-34.8 30.5c-12.2 15.1-12 17.9-12 17.9l8.8 4s12.5-23.6 27.9-32.5c15.4-8.8 17.4-16.2 17.4-16.2l-7.3-3.7z"/><path fill="#CCAC8D" d="M92.6 43.9S84.9 65 67.8 73.8c0 0 26.8-3.1 24.8-29.9zm179.8 0s7.7 21.1 24.8 29.9c0 0-26.8-3.1-24.8-29.9zm-48.7 39.3S206.9 65.5 184.4 65h.6c-22.8.6-39.3 18.2-39.3 18.2 19.7-13.7 36.5-13.4 39.3-13.4-.4 0 19-.3 38.7 13.4zm-19.7-37s-8.5-12-19.9-12.2h.6c-8.5.3-19.7 12.2-19.7 12.2 9.7-9.4 19.7-9.1 19.7-9.1s9.3-.4 19.3 9.1zm-98.6 87.4s-13.4 6.6-23.1 2.6H82c-8.5-4.8-12.8-19.4-12.8-19.4s8.6 25.6 36.2 16.8zm156.2 0s13.4 6.6 23.1 2.6c11.4-4.8 13.1-19.4 13.1-19.4s-8.6 25.6-36.2 16.8z"/><path fill="#CCAC8D" d="M120.8 42.4c7.4-1.4 19.7-1.7 29.3 1.4 12.2 4.3 2.3 19.9 4.8 20.8 2.6.9 6-10.8 28.8-9.7 23.1 1.1 25.6 11.4 28.8 9.7 3.1-1.7-3.1-28.5 31.3-22.2 0 0-36.2-9.7-34.5 16.5 0 0-20.8-16-49.9-1.7.5.1 7.9-24.4-38.6-14.8zm126.2 0c.6 0 .9.3 1.1.3s-.2-.3-1.1-.3zm-136.1-35S80.1 46.1 75.6 61c-4.6 15.1-8 76.9-12 85.7l-14.2-61 26.2-63.5 35.3-14.8zm144.7 0s30.8 38.7 35.3 53.6c4.6 15.1 8 76.9 12 85.7l14.2-61-26.2-63.5-35.3-14.8z"/><path fill="#56332B" d="M254.1 7.4s33 27.6 42.7 59.5c9.7 31.9 5.7 70.7 13.1 75.5 10.5 6.8 22.5-33.9 26.5-38.2 6.3-6.8 27.1-24.2 28.5-27.3 1.4-3.1-42.2-50.7-61.2-60.1C280.6 6 252.2 5.1 254.1 7.4z"/><path fill="#442823" d="M282.4 24.5s39 49.9 38.5 112l15.7-31.9c-.4 0-14.1-40.8-54.2-80.1z"/><path fill="#56332B" d="M110.9 7.4S77.9 35 68.2 66.9s-5.7 70.7-13.1 75.5c-10.5 6.8-22.5-33.9-26.5-38.2C22.3 97.4 1.5 80.1 0 76.9c-1.4-3.1 42.2-50.7 61.2-60.1C84.4 6 112.8 5.1 110.9 7.4z"/><path fill="#442823" d="M82.6 24.5s-39 49.9-38.5 112l-15.4-31.9c.1 0 13.8-40.8 53.9-80.1z"/><path fill="#CCAC8D" d="M61.6 137.6s2.8 15.4 7.4 20.2c4.6 4.8 1.4-3.7 1.4-3.7s-4.8-2.6-4-22.2c.9-19.7-4.8 5.7-4.8 5.7zm243 0s-2.8 15.4-7.4 20.2c-4.6 4.8-1.4-3.7-1.4-3.7s4.8-2.6 4-22.2c-.9-19.7 4.8 5.7 4.8 5.7z"/><path fill="#442823" d="M154.7 123.6c1.3 0 2.3 1 2.3 2.3 0 1.3-1 2.3-2.3 2.3s-2.3-1-2.3-2.3c0-1.2 1.1-2.3 2.3-2.3zm-13.1 13.7c1.3 0 2.3 1 2.3 2.3 0 1.3-1 2.3-2.3 2.3-1.3 0-2.3-1-2.3-2.3 0-1.3 1.1-2.3 2.3-2.3zm-4.3-13.7c1.3 0 2.3 1 2.3 2.3 0 1.3-1 2.3-2.3 2.3-1.3 0-2.3-1-2.3-2.3.1-1.2 1.1-2.3 2.3-2.3zm73 0c1.3 0 2.3 1 2.3 2.3 0 1.3-1 2.3-2.3 2.3-1.3 0-2.3-1-2.3-2.3 0-1.2 1-2.3 2.3-2.3zm13.1 13.7c1.3 0 2.3 1 2.3 2.3 0 1.3-1 2.3-2.3 2.3-1.3 0-2.3-1-2.3-2.3 0-1.3 1-2.3 2.3-2.3zm4.3-13.7c1.3 0 2.3 1 2.3 2.3 0 1.3-1 2.3-2.3 2.3-1.3 0-2.3-1-2.3-2.3 0-1.2 1-2.3 2.3-2.3z"/></svg>