<svg xmlns="http://www.w3.org/2000/svg" viewBox="0 0 41.6 32.7"><path fill-rule="evenodd" clip-rule="evenodd" fill="#F89920" d="M4.374 23.248L.012 18.4l13.33-4.847 2.06 5.695-11.028 3.999z"/><path fill-rule="evenodd" clip-rule="evenodd" fill="#FFBE22" d="M4.374 23.126l-.242 6.544 13.329-4.847-2.06-5.695-11.027 3.998z"/><path fill-rule="evenodd" clip-rule="evenodd" fill="#F0670A" d="M41.332 9.798C43.27 15.25 37.09 22.52 27.639 26.035c-9.572 3.514-18.902 1.817-20.962-3.636L41.332 9.798z"/><path fill-rule="evenodd" clip-rule="evenodd" fill="#FFD00E" d="M41.332 9.798c-2.06-5.453-11.39-7.028-20.963-3.636C10.797 9.676 4.738 16.947 6.677 22.4L41.332 9.798z"/><path fill-rule="evenodd" clip-rule="evenodd" fill="#F89920" d="M41.332 9.798c1.212 3.635-5.453 9.45-14.904 12.844-9.452 3.393-18.297 3.271-19.751-.243L41.332 9.798z"/><path fill-rule="evenodd" clip-rule="evenodd" fill="#FFBE22" d="M41.332 9.798C39.878 6.162 31.153 6.04 21.58 9.555 12.008 13.07 5.465 18.765 6.677 22.4L41.332 9.798z"/><path fill="#F0670A" d="M25.337 4.83c-.848-3.151-1.939-4.847-3.15-4.847-2.303.12-3.03 7.27-2.303 16.479.727 9.33 2.666 16.237 5.09 16.237 1.454 0 2.18-2.302 2.544-6.301 0-.121-.12 0-.12-.121 0 0 0-.121-.122-.121h-.364c-.242 3.877-.969 6.058-2.06 6.058-1.938 0-3.877-6.907-4.604-15.752-.727-8.846 0-15.874 1.818-15.995.848 0 1.817 1.576 2.665 4.484.121 0 .606-.122.606-.122z"/><path fill="#F0670A" d="M14.068 2.648c-1.939 1.212.97 7.755 6.18 15.39 5.332 7.633 10.42 12.722 12.48 11.51 1.091-.727.849-2.786-.605-6.058 0-.121-.243-.121-.364-.121-.12 0-.12.242-.12.363 1.332 3.03 1.696 4.968.847 5.453-1.696.97-6.785-3.999-11.875-11.39-4.968-7.27-7.876-13.814-6.422-14.783.849-.485 2.787.727 5.332 3.272l.242.242c.121 0 0-.121.121-.242.122-.122.122-.243 0-.364-2.665-2.666-4.725-3.999-5.816-3.272z"/></svg>