<svg xmlns="http://www.w3.org/2000/svg" viewBox="0 0 224.5 249"><path fill="#8ED6FB" d="M217.6 191.9L116.7 249v-44.4l62.9-34.6 38 21.9zm6.9-6.2V66.3l-36.9 21.3v76.8l36.9 21.3zM6.9 191.9L107.8 249v-44.4L44.9 170l-38 21.9zM0 185.7V66.3l36.9 21.3v76.8L0 185.7zM4.3 58.5L107.8 0v43L41.5 79.5l-.5.2L4.3 58.5zm215.9 0L116.7 0v43L183 79.5l.5.3 36.7-21.3z"/><path fill="#1C78C0" d="M107.8 194.5l-62-34.1V92.7l62 35.8v66zm8.9 0l62-34.1V92.7l-62 35.8v66zM49.9 84.9l62.3-34.2 62.3 34.2-62.3 35.9-62.3-35.9z"/></svg>