<svg xmlns="http://www.w3.org/2000/svg" viewBox="0 0 80.6 113.4"><path fill="#E6A329" d="M80.6 22.2H0l7.5 81.9 32.8 9.3 32.7-9.3z"/><path fill="#F1BF22" d="M40.3 28.9v77.6l26.5-7.6 6.4-70z"/><path fill="#FFFFFF" d="M61.4 38.9H20.6l-2.8 30.7v-.2h34.7l-1.2 13-11 3.2-11.2-3.3-.7-7.8H18.2l1.5 15.7L40.3 96l20.6-5.8 2.8-30.8H27l.5-10.3H53l.3 5.9h10.3z"/><path fill="#EBEBEB" d="M40.3 38.9H20.6l-2.8 30.7.1-.2h22.5v-10h-12l.5-10.3h11.4V38.9zM28.4 74.5H18.2l1.5 15.7L40.3 96V85.6l-11.2-3.2-.7-7.9z"/><path d="M32.4 10.1h-7.1v5.2h12.3V0h-5.2zM55.3.1H42.8v5.4c1.7 1.7 2.5 2.5 5 4.9h-5v4.9h12.5v-4.9l-5-4.9h5V.1z"/></svg>