<svg xmlns="http://www.w3.org/2000/svg" viewBox="0 0 88.7 37.9"><path fill="#214674" d="M3.8 24.1c0-1.5-1-3.1-3.8-3.2v-3.8c2.8-.1 3.8-1.7 3.8-3.2 0-2.7-.4-4.4-.4-7.6C3.4 1.5 5.1 0 9 0h10.4v3.5H11c-1.8 0-2.4.6-2.4 3l.2 7.1c0 3.4-1.1 4.6-3.2 5.2v.2c2.2.5 3.2 1.8 3.2 5.2l-.2 7.1c0 2.4.5 3.1 2.4 3.1h.9v3.3H9c-3.9 0-5.6-1.5-5.6-6.3 0-3 .4-4.6.4-7.3zM13 .3h6.5v24.3c0 1.4.6 1.8 1.2 1.8.2 0 .4 0 .8-.1l.8 4.8c-.8.3-1.8.5-3.2.5-4.4 0-5.9-2.9-5.9-7.3L13 .3zm18.2 8.5c6.2 0 9.3 4.5 9.3 10.5 0 1.2-.1 2.2-.2 2.7H27c.5 3.3 2.8 4.8 5.7 4.8 1.6 0 3.1-.4 4.8-1.4l2.2 3.9c-2.3 1.5-5.2 2.5-7.8 2.5-6.3 0-11-4.2-11-11.5-.1-7.1 5-11.5 10.3-11.5zm3.8 9.1c0-2.5-1.1-4.3-3.7-4.3-2.1 0-3.8 1.4-4.2 4.3H35zm9.2 6.7c1.9 1.5 3.8 2.3 5.6 2.3 1.9 0 2.8-.8 2.8-1.8 0-1.4-2.2-2.2-4.4-3-2.6-1-5.7-2.8-5.7-6.4 0-4 3.3-6.8 8.3-6.8 3.3 0 5.8 1.4 7.7 2.8l-2.9 3.9c-1.6-1.2-3-1.8-4.6-1.8s-2.5.6-2.5 1.7c0 1.4 2.1 1.9 4.3 2.8 2.8 1 5.9 2.6 5.9 6.6s-3.1 7-9 7c-2.8 0-6.2-1.2-8.3-3l2.8-4.3zm17.6 0c1.9 1.5 3.8 2.3 5.6 2.3 1.9 0 2.8-.8 2.8-1.8 0-1.4-2.2-2.2-4.4-3-2.6-1-5.7-2.8-5.7-6.4 0-4 3.3-6.8 8.3-6.8 3.3 0 5.8 1.4 7.7 2.8l-2.9 3.9c-1.6-1.2-3-1.8-4.6-1.8s-2.6.6-2.6 1.6c0 1.4 2.1 1.9 4.2 2.8 2.8 1 5.9 2.6 5.9 6.6s-3.1 7-9 7c-2.8 0-6.2-1.2-8.3-3l3-4.2zm16 9.8c1.8 0 2.4-.6 2.4-3.1 0-2.4-.2-4.5-.2-7.1 0-3.4 1.1-4.6 3.2-5.2v-.2C81 18.3 80 17 80 13.6c0-2.6.2-4.9.2-7.1 0-2.4-.4-3-2.4-3H77V0h2.8c3.9 0 5.6 1.5 5.6 6.3 0 3-.4 4.8-.4 7.6 0 1.5 1 3.1 3.8 3.2v3.8C86 21 85 22.6 85 24.1c0 2.8.4 4.4.4 7.6 0 4.8-1.7 6.3-5.6 6.3H77v-3.5l.8-.1z"/></svg>