<?xml version="1.0" standalone="no"?>
<!DOCTYPE svg PUBLIC "-//W3C//DTD SVG 20010904//EN"
 "http://www.w3.org/TR/2001/REC-SVG-20010904/DTD/svg10.dtd">
<svg version="1.0" xmlns="http://www.w3.org/2000/svg"
 width="1440.000000pt" height="1440.000000pt" viewBox="0 0 1440.000000 1440.000000"
 preserveAspectRatio="xMidYMid meet">
<metadata>
Created by potrace 1.11, written by Peter Selinger 2001-2013
</metadata>
<g transform="translate(0.000000,1440.000000) scale(0.100000,-0.100000)"
fill="#000000" stroke="none">
<path d="M4327 11963 c-3 -2 -32 -7 -64 -9 -32 -3 -85 -10 -118 -16 -33 -6
-73 -12 -90 -14 -16 -2 -48 -8 -70 -14 -22 -6 -51 -13 -65 -16 -14 -2 -32 -7
-40 -10 -8 -3 -24 -8 -36 -10 -11 -2 -68 -20 -125 -40 -57 -20 -114 -38 -126
-41 -13 -3 -23 -9 -23 -14 0 -5 -7 -9 -16 -9 -9 0 -63 -22 -119 -50 -56 -27
-107 -50 -114 -50 -6 0 -11 -4 -11 -9 0 -5 -13 -13 -28 -19 -16 -5 -35 -16
-43 -23 -8 -8 -27 -21 -44 -29 -62 -30 -250 -164 -342 -244 -56 -47 -213 -195
-213 -200 0 -2 -19 -23 -42 -48 -115 -121 -267 -328 -357 -488 -82 -144 -218
-452 -226 -510 0 -3 -3 -9 -6 -15 -4 -5 -10 -26 -14 -45 -4 -19 -10 -39 -13
-45 -4 -5 -7 -14 -8 -20 -7 -38 -14 -67 -27 -120 -9 -33 -18 -73 -21 -90 -2
-16 -9 -55 -15 -85 -26 -142 -35 -254 -35 -460 0 -156 7 -298 18 -355 2 -11 7
-42 10 -70 10 -72 16 -105 26 -149 5 -22 7 -43 4 -47 -2 -4 0 -9 5 -11 5 -1
11 -19 14 -38 4 -19 10 -51 16 -70 5 -19 14 -51 19 -70 12 -41 40 -127 52
-155 4 -11 16 -40 25 -65 9 -25 23 -58 30 -75 7 -16 19 -45 26 -62 8 -18 17
-33 21 -33 5 0 7 -3 6 -7 -3 -8 62 -144 72 -153 3 -3 14 -21 24 -40 45 -88
101 -173 205 -310 254 -335 598 -615 972 -793 98 -46 261 -114 294 -122 6 -1
17 -5 25 -8 49 -20 295 -80 380 -93 128 -19 155 -22 272 -28 48 -2 92 -7 98
-11 5 -3 10 -3 10 2 0 4 53 8 118 8 184 1 297 15 527 65 120 26 298 85 430
142 113 50 269 129 273 140 2 4 9 8 16 8 7 0 23 9 36 20 13 11 29 20 37 20 7
0 13 3 13 8 0 4 20 18 45 32 25 14 45 28 45 32 0 3 8 9 18 12 9 4 32 20 51 36
18 17 36 30 40 30 3 0 25 17 48 38 23 20 59 51 80 69 113 94 317 315 390 423
14 19 27 37 31 40 4 3 12 14 19 25 7 11 42 66 78 123 36 57 65 108 65 113 0 5
5 9 12 9 6 0 9 3 6 6 -4 3 9 33 28 66 19 33 34 61 34 63 0 2 16 38 36 82 49
109 49 108 83 203 27 77 60 185 65 214 1 6 5 20 9 31 3 11 8 31 11 45 3 14 12
54 19 90 8 36 18 90 22 120 4 30 9 64 11 75 25 122 25 602 0 745 -7 40 -20
123 -21 141 -1 9 -6 29 -10 45 -4 16 -9 38 -11 49 -2 11 -8 40 -14 65 -7 25
-13 52 -15 60 -17 75 -96 298 -142 400 -88 198 -229 436 -342 576 -225 278
-387 429 -657 609 -133 90 -370 213 -509 265 -112 41 -235 80 -235 73 0 -3 -6
-1 -12 4 -7 6 -31 14 -53 18 -22 5 -44 9 -50 11 -17 4 -238 43 -280 49 -52 8
-511 15 -518 8z m358 -478 c148 -9 171 -11 180 -17 6 -3 18 -4 28 -3 9 2 17 0
17 -3 0 -4 10 -7 23 -8 12 0 36 -3 52 -7 70 -15 112 -26 143 -35 18 -6 33 -11
35 -11 2 0 36 -11 57 -18 8 -4 20 -7 25 -8 62 -15 333 -138 346 -158 3 -5 8
-7 10 -5 4 3 148 -84 174 -104 6 -5 46 -36 90 -69 44 -33 87 -67 95 -74 52
-48 210 -205 205 -205 -2 0 8 -12 23 -27 16 -16 41 -46 58 -68 16 -22 35 -46
42 -54 7 -7 43 -59 80 -115 82 -125 178 -315 225 -444 35 -94 89 -272 92 -302
1 -8 8 -42 15 -75 7 -33 14 -71 16 -85 2 -14 6 -43 9 -65 3 -22 7 -68 9 -103
2 -35 6 -66 9 -69 4 -3 2 -14 -3 -24 -6 -10 -7 -20 -3 -22 6 -4 9 -192 3 -192
0 0 -3 -29 -6 -65 -7 -98 -12 -152 -19 -185 -3 -16 -10 -52 -15 -80 -5 -27
-11 -59 -14 -70 -18 -86 -76 -277 -87 -289 -5 -6 -9 -16 -9 -24 0 -7 -9 -32
-19 -55 -45 -98 -70 -158 -70 -164 1 -3 -3 -9 -8 -12 -4 -3 -23 -35 -42 -71
-19 -36 -59 -103 -90 -150 -53 -81 -63 -95 -86 -123 -5 -7 -28 -35 -50 -62
-93 -117 -235 -258 -350 -346 -16 -13 -31 -27 -33 -31 -2 -5 -8 -8 -13 -8 -9
0 -75 -45 -115 -79 -6 -4 -36 -23 -68 -41 -32 -17 -82 -46 -110 -62 -28 -17
-53 -30 -56 -30 -3 0 -26 -10 -52 -23 -27 -13 -48 -22 -48 -18 0 3 -6 1 -12
-5 -12 -9 -172 -69 -208 -77 -8 -2 -37 -10 -64 -19 -27 -8 -53 -13 -58 -10 -4
3 -8 1 -8 -4 0 -5 -6 -9 -12 -9 -7 0 -29 -4 -48 -7 -180 -33 -249 -39 -435
-38 -146 1 -224 5 -295 17 -19 3 -48 8 -65 10 -45 8 -83 16 -180 42 -103 27
-192 58 -305 106 -14 6 -27 11 -30 11 -9 2 -153 77 -200 104 -51 30 -198 128
-220 148 -8 8 -43 36 -77 64 -109 88 -247 231 -351 365 -33 42 -107 151 -107
157 0 4 -7 16 -16 26 -9 10 -23 32 -31 48 -81 155 -108 211 -137 284 -45 114
-81 220 -75 220 3 0 2 6 -3 13 -4 6 -8 17 -10 22 -1 6 -8 36 -16 68 -8 31 -12
57 -9 57 2 0 -1 7 -8 15 -7 8 -10 15 -7 15 3 0 1 17 -4 38 -5 20 -11 62 -15
92 -3 30 -8 69 -11 85 -8 41 -12 468 -5 480 4 5 7 23 8 40 3 29 8 64 19 130 5
30 6 38 26 135 19 92 105 341 157 452 55 116 171 318 184 318 4 0 8 5 8 11 0
9 42 72 60 89 3 3 21 25 40 50 83 108 306 329 368 364 10 5 23 16 31 23 17 18
144 103 202 137 96 56 276 141 292 138 4 -1 7 3 7 8 0 6 8 10 18 10 10 0 22 3
26 7 3 4 14 8 23 9 10 2 26 7 38 13 36 17 204 62 285 75 14 3 25 5 25 6 0 1
25 5 100 15 22 3 94 8 160 11 66 4 121 7 123 9 1 1 12 1 25 -1 12 -2 58 -6
102 -9z"/>
<path d="M2970 6345 c-14 -8 -33 -18 -42 -21 -10 -3 -18 -11 -18 -17 0 -6 -3
-8 -6 -5 -3 3 -56 -26 -117 -66 -128 -81 -547 -340 -604 -373 -21 -12 -42 -25
-48 -30 -5 -5 -26 -18 -45 -29 -19 -10 -37 -22 -40 -25 -3 -3 -21 -14 -40 -25
-19 -10 -37 -22 -40 -25 -3 -3 -12 -9 -20 -12 -8 -4 -34 -20 -57 -35 -24 -15
-78 -49 -120 -75 -88 -54 -86 -52 -200 -124 -45 -29 -87 -53 -92 -53 -6 0 -14
-7 -19 -16 -5 -9 -12 -15 -16 -15 -3 1 -19 -6 -34 -16 -15 -9 -46 -28 -69 -42
-22 -14 -71 -44 -108 -66 -37 -22 -73 -46 -80 -52 -7 -7 -16 -13 -19 -13 -10
0 -191 -114 -194 -122 -2 -5 -8 -8 -13 -8 -5 0 -28 -12 -52 -27 -23 -15 -50
-32 -59 -38 -9 -5 -38 -23 -65 -39 -295 -179 -470 -352 -595 -586 -59 -113
-112 -263 -124 -355 -3 -22 -9 -52 -14 -66 -11 -37 -11 -543 1 -604 5 -27 11
-60 14 -73 24 -130 115 -319 205 -425 71 -84 197 -197 219 -197 6 0 11 -4 11
-8 0 -18 233 -123 305 -138 6 -1 24 -5 40 -9 17 -3 50 -9 75 -12 53 -6 5881
-12 5893 -5 5 2 2 9 -6 15 -13 10 -90 98 -168 191 -13 16 -40 48 -60 70 -20
23 -67 76 -104 119 -37 42 -70 77 -74 77 -3 0 -1222 1 -2708 1 -2893 0 -2751
-2 -2865 49 -50 22 -131 79 -161 114 -10 12 -27 31 -38 44 -24 28 -81 132 -73
132 4 0 2 6 -3 13 -25 31 -36 127 -35 316 0 183 4 250 17 311 3 14 8 40 11 58
3 17 10 32 16 32 5 0 7 4 4 8 -6 10 61 154 76 163 5 3 8 8 6 10 -10 12 101
136 172 191 55 43 514 328 528 328 6 0 12 4 14 8 3 8 114 82 123 82 3 0 31 17
62 37 153 98 767 473 774 473 5 0 9 4 9 9 0 5 8 11 18 15 18 6 37 17 87 52 17
11 37 24 45 27 8 4 27 15 42 25 30 19 302 187 333 205 11 7 23 17 27 22 4 6 8
6 8 2 0 -4 15 3 33 16 17 13 64 43 103 66 l72 42 63 -25 c96 -36 104 -39 109
-41 3 0 41 -13 85 -27 105 -34 175 -54 220 -62 11 -2 27 -6 35 -9 14 -6 29 -9
95 -22 17 -3 39 -7 51 -10 11 -2 40 -7 65 -10 24 -3 55 -7 69 -10 110 -23 286
-34 520 -34 169 0 212 2 313 13 26 4 71 9 100 12 46 5 211 33 292 49 63 13
262 64 303 79 23 8 42 13 42 9 0 -3 6 -1 13 5 7 6 24 13 37 15 14 3 57 17 95
32 39 15 78 28 88 30 17 4 54 -11 67 -26 3 -3 12 -9 20 -12 8 -4 27 -15 42
-25 16 -9 109 -66 208 -126 100 -60 183 -113 186 -118 3 -4 9 -6 13 -3 5 2 16
-4 26 -15 10 -11 22 -20 26 -20 4 0 51 -27 104 -60 52 -33 104 -64 115 -70 16
-9 41 12 189 159 94 94 171 174 171 178 0 7 -107 77 -165 109 -27 14 -284 172
-315 193 -14 10 -32 20 -40 24 -8 4 -28 16 -45 27 -16 11 -37 23 -45 27 -8 4
-44 26 -80 49 -36 23 -81 51 -100 62 -19 11 -99 58 -178 106 -78 47 -145 86
-150 86 -13 0 -157 -65 -163 -73 -3 -5 -10 -9 -15 -9 -5 0 -20 -5 -34 -10
-112 -44 -179 -66 -184 -61 -3 4 -6 1 -6 -5 0 -7 -3 -11 -7 -10 -5 1 -39 -7
-78 -19 -89 -28 -257 -69 -315 -78 -25 -4 -54 -9 -65 -11 -28 -6 -113 -16
-155 -19 -19 -2 -35 -4 -35 -5 0 -4 -144 -11 -265 -12 -175 -2 -300 4 -300 15
0 4 -8 3 -19 -2 -10 -6 -21 -8 -24 -4 -4 3 -23 7 -44 9 -51 5 -104 12 -128 17
-11 3 -41 8 -66 11 -26 3 -109 22 -185 42 -77 19 -143 36 -149 37 -5 2 -16 6
-23 10 -7 5 -24 10 -38 13 -25 5 -129 42 -189 68 -16 8 -50 22 -75 32 -25 10
-48 23 -52 29 -4 5 -8 7 -8 2 0 -4 -17 2 -37 13 -45 24 -50 24 -83 5z"/>
<path d="M9879 5886 c-3 -3 -30 -7 -61 -10 -70 -5 -122 -29 -151 -70 l-22 -31
-3 -1440 c-1 -792 0 -1453 3 -1470 5 -28 55 -99 55 -79 0 5 5 2 10 -6 7 -11
33 -15 118 -14 103 0 112 1 145 27 24 18 37 38 42 64 10 51 9 2943 -1 2968
-10 25 -23 38 -51 53 -21 12 -75 16 -84 8z"/>
<path d="M12740 5780 c-19 -4 -46 -12 -60 -18 -34 -14 -90 -62 -90 -77 0 -7
-7 -18 -15 -25 -8 -7 -15 -23 -15 -36 0 -13 -4 -24 -8 -24 -5 0 -9 -6 -9 -12
-1 -12 -45 -128 -77 -203 -8 -16 -22 -52 -31 -80 -10 -27 -22 -54 -25 -60 -4
-5 -11 -21 -15 -35 -4 -14 -13 -38 -21 -55 -7 -16 -38 -95 -69 -175 -31 -80
-95 -242 -142 -360 -226 -571 -281 -712 -280 -720 1 -3 -6 -18 -15 -35 -9 -16
-31 -68 -49 -115 -18 -47 -37 -89 -41 -94 -4 -6 -8 -15 -8 -22 0 -6 -8 -29
-17 -50 -9 -22 -18 -43 -19 -49 -1 -5 -25 -65 -52 -132 -28 -67 -47 -124 -44
-127 3 -3 1 -6 -5 -6 -5 0 -15 -18 -22 -39 -6 -22 -19 -56 -28 -78 -9 -21 -18
-42 -19 -48 -1 -5 -18 -47 -38 -93 -19 -45 -36 -84 -36 -87 -1 -8 -12 -37 -56
-145 -52 -130 -59 -169 -39 -218 46 -109 166 -151 278 -98 42 21 97 81 97 108
0 10 5 18 10 18 6 0 10 5 10 12 0 7 52 144 116 305 63 161 115 295 114 298 0
3 6 18 14 33 15 27 96 228 100 247 1 6 8 21 16 35 7 14 13 27 13 30 -1 3 5 20
13 39 8 19 17 45 20 58 4 13 10 26 15 29 5 3 9 12 9 20 0 8 8 33 19 57 10 23
30 71 44 107 54 138 88 226 97 245 5 11 25 63 45 115 20 52 40 104 45 115 5
11 32 79 60 150 28 72 54 139 59 150 5 11 21 52 36 90 15 39 31 79 36 90 21
49 171 432 174 445 2 8 29 75 59 148 71 172 77 197 61 257 -7 28 -82 111 -92
102 -2 -3 -23 1 -46 7 -24 7 -57 9 -77 6z"/>
<path d="M7074 5599 c-3 -5 -10 -7 -15 -3 -20 12 -61 -23 -149 -127 -25 -29
-60 -69 -77 -88 -54 -59 -83 -96 -83 -104 0 -5 -4 -5 -10 -2 -5 3 -10 2 -10
-4 0 -6 -12 -23 -28 -39 -15 -15 -45 -50 -67 -77 -22 -27 -53 -63 -70 -81 -16
-18 -43 -47 -59 -65 -120 -139 -145 -168 -171 -198 -17 -18 -41 -46 -55 -61
-14 -15 -45 -52 -70 -81 -25 -29 -62 -71 -82 -92 -21 -22 -38 -43 -38 -47 0
-4 -6 -13 -14 -19 -20 -16 -75 -150 -96 -231 -17 -66 -21 -277 -7 -345 4 -16
9 -39 11 -50 7 -31 33 -99 51 -134 15 -30 31 -51 80 -107 11 -12 36 -42 55
-65 19 -24 64 -77 100 -119 36 -42 83 -98 105 -125 22 -26 47 -55 55 -64 9 -9
49 -56 90 -106 41 -49 77 -92 80 -95 3 -3 39 -45 80 -95 41 -49 77 -92 80 -95
3 -3 31 -35 61 -71 31 -37 61 -73 68 -80 158 -188 210 -200 286 -62 42 76 46
90 50 155 4 59 -9 121 -36 174 -20 41 -29 52 -119 154 -27 30 -58 66 -70 80
-12 14 -31 36 -43 50 -12 14 -54 61 -92 105 -38 44 -74 85 -80 91 -5 6 -28 32
-50 58 -22 27 -49 58 -60 70 -11 12 -45 51 -75 86 -56 64 -63 73 -128 148 -20
24 -52 59 -69 79 -18 19 -33 41 -33 48 0 8 -5 15 -10 17 -6 2 -12 15 -14 29
-1 13 -5 29 -8 35 -10 15 0 99 16 137 13 33 27 51 91 122 17 19 39 44 50 57
83 100 112 133 126 147 9 9 49 54 88 100 40 46 77 89 84 96 7 6 31 34 54 61
52 62 72 84 141 163 31 35 67 76 80 90 104 118 140 195 147 311 5 82 -17 182
-50 225 -24 32 -81 60 -91 44z"/>
<path d="M13240 5567 c-27 -21 -47 -61 -55 -107 -4 -25 -10 -54 -12 -65 -3
-11 -6 -56 -7 -100 -2 -63 3 -95 22 -150 13 -38 29 -73 36 -77 6 -4 7 -8 3 -8
-4 0 2 -10 15 -23 13 -13 50 -54 83 -92 33 -37 67 -76 75 -85 8 -9 42 -48 75
-85 33 -38 74 -83 90 -101 17 -18 53 -59 80 -90 28 -32 57 -65 65 -73 8 -9 40
-45 70 -81 30 -35 62 -71 70 -80 91 -97 158 -180 174 -214 35 -75 22 -173 -31
-231 -10 -11 -45 -51 -78 -89 -33 -38 -69 -79 -80 -91 -11 -11 -42 -47 -70
-79 -27 -32 -61 -70 -75 -85 -14 -15 -54 -60 -90 -101 -36 -40 -79 -89 -97
-109 -45 -50 -68 -77 -143 -162 -36 -40 -77 -86 -92 -102 -16 -16 -28 -33 -28
-38 0 -5 -3 -9 -8 -9 -20 0 -61 -105 -69 -179 -7 -67 -7 -68 1 -106 3 -16 8
-43 11 -60 3 -16 13 -46 21 -66 19 -45 83 -84 117 -73 12 5 25 7 28 7 9 -3 72
59 124 122 27 33 56 67 64 77 9 9 26 29 38 45 12 15 30 37 40 48 10 11 42 49
72 85 30 36 60 70 65 75 9 9 51 58 116 139 8 10 26 31 40 46 14 15 32 36 40
47 14 17 83 99 140 167 14 16 36 42 50 57 14 15 38 43 53 63 16 19 44 53 63
75 20 22 35 43 35 48 0 4 6 15 14 23 16 19 46 86 76 170 39 109 32 401 -11
490 -48 98 -89 156 -167 236 -13 13 -23 28 -23 34 0 5 -3 10 -8 10 -4 0 -47
47 -96 105 -49 58 -93 105 -98 105 -5 0 -7 4 -4 9 4 5 3 11 -1 13 -7 3 -87 92
-154 172 -13 16 -35 41 -49 56 -14 15 -43 49 -65 75 -22 27 -45 53 -50 59 -6
6 -33 38 -60 70 -28 33 -59 70 -70 82 -11 12 -38 43 -60 70 -94 113 -130 144
-166 144 -19 0 -41 -6 -49 -13z"/>
<path d="M8110 5049 c-19 -6 -41 -10 -47 -11 -7 -1 -13 -5 -13 -8 0 -4 -12
-13 -27 -19 -36 -15 -104 -79 -155 -148 -22 -29 -44 -53 -47 -53 -19 0 -39 29
-44 64 -11 72 -64 106 -158 101 -75 -4 -91 -11 -119 -52 l-25 -36 0 -1006 c-1
-636 3 -1015 9 -1031 5 -14 23 -38 39 -54 29 -29 33 -30 126 -30 115 0 148 13
175 68 18 37 19 73 20 790 1 715 2 753 20 789 10 21 29 46 42 55 13 9 46 38
73 63 92 85 169 103 222 50 17 -17 30 -41 30 -58 5 -85 6 -101 12 -116 4 -10
3 -17 -1 -17 -10 0 -8 -42 2 -58 4 -7 2 -12 -4 -12 -8 0 -8 -6 0 -20 7 -13 7
-20 1 -20 -7 0 -7 -9 -1 -26 6 -14 7 -23 2 -21 -8 6 -8 -50 1 -59 3 -3 2 -17
-4 -31 -6 -16 -6 -22 1 -18 7 4 7 -3 0 -20 -7 -18 -7 -33 0 -46 6 -10 7 -19 3
-19 -9 0 -9 -67 0 -76 3 -3 1 -19 -3 -35 -5 -17 -5 -31 1 -35 5 -3 6 -10 3
-16 -9 -14 -11 -158 -3 -158 4 0 3 -18 -1 -40 -4 -22 -3 -37 1 -34 5 3 4 -7
-1 -21 -7 -18 -7 -33 0 -46 6 -10 7 -19 3 -19 -9 0 -9 -67 0 -76 3 -3 1 -19
-3 -35 -5 -17 -5 -31 1 -35 5 -3 6 -10 3 -16 -9 -14 -11 -158 -3 -158 4 0 3
-18 -1 -40 -4 -22 -3 -37 1 -34 5 3 4 -7 -1 -21 -7 -18 -7 -33 0 -46 6 -10 7
-19 3 -19 -9 0 -9 -67 0 -76 3 -3 1 -19 -3 -35 -5 -17 -5 -31 1 -35 6 -3 6
-11 1 -17 -4 -7 -7 -21 -5 -32 2 -11 5 -31 6 -45 6 -42 18 -60 54 -84 29 -20
44 -23 118 -21 62 2 88 6 100 19 9 9 20 16 23 16 4 0 14 15 22 33 12 27 14
154 15 792 1 711 3 764 20 815 10 30 28 67 41 82 12 15 24 31 26 35 6 15 103
95 124 103 35 14 84 19 84 9 0 -5 3 -8 8 -8 31 5 61 -30 69 -79 3 -15 6 -400
7 -857 2 -571 6 -838 14 -856 6 -15 25 -37 43 -50 29 -20 44 -23 128 -23 77 0
102 4 124 18 63 42 60 10 60 796 0 393 -3 753 -7 800 -9 126 -16 194 -22 221
-3 13 -7 35 -9 49 -37 221 -110 320 -281 381 -149 53 -260 16 -411 -140 -55
-57 -65 -63 -90 -56 -15 3 -28 7 -29 8 -36 67 -111 148 -171 183 -47 28 -137
39 -193 23z"/>
<path d="M10788 4949 c-73 -24 -109 -55 -178 -152 -36 -50 -67 -96 -69 -101
-2 -6 -7 -13 -11 -16 -3 -3 -26 -34 -51 -70 -24 -36 -48 -69 -52 -75 -8 -10
-137 -195 -159 -229 -7 -10 -23 -31 -35 -46 -13 -15 -23 -31 -23 -34 0 -3 -15
-26 -32 -50 -66 -88 -73 -99 -86 -135 -15 -41 -17 -71 -8 -121 7 -35 45 -112
59 -118 4 -2 7 -10 7 -17 0 -7 3 -15 8 -17 9 -4 72 -107 72 -119 0 -5 5 -9 10
-9 6 0 10 -4 10 -9 0 -5 17 -36 38 -69 20 -33 59 -96 86 -139 27 -43 64 -102
82 -130 19 -29 34 -57 34 -63 0 -5 5 -10 10 -10 6 0 10 -7 10 -15 0 -8 5 -15
10 -15 6 0 10 -4 10 -10 0 -13 177 -299 204 -328 25 -28 94 -70 128 -78 12 -3
87 -7 166 -8 122 -2 145 0 158 15 19 21 12 58 -20 106 -14 21 -26 41 -26 46 0
5 -6 15 -12 22 -27 30 -38 44 -38 49 0 3 -54 89 -120 191 -66 103 -120 190
-120 194 0 4 -9 16 -20 26 -11 10 -18 20 -16 22 2 3 -5 16 -17 30 -12 13 -22
28 -22 31 0 4 -10 21 -23 39 -12 17 -22 36 -22 41 0 6 -3 12 -7 14 -9 3 -66
85 -76 108 -4 8 -29 49 -57 90 -70 106 -81 126 -84 167 -7 74 22 138 114 249
54 66 60 74 60 79 0 3 42 63 94 133 52 70 109 147 128 172 18 25 37 48 43 52
5 4 6 8 1 8 -5 0 1 8 12 19 12 10 22 21 22 25 0 4 18 30 40 59 22 29 44 57 48
62 4 6 19 26 34 46 28 37 30 61 10 81 -17 17 -34 19 -162 21 -82 1 -128 -2
-162 -14z"/>
</g>
</svg>
