<?xml version="1.0" encoding="utf-8"?>
<!-- Generator: Adobe Illustrator 23.0.1, SVG Export Plug-In . SVG Version: 6.00 Build 0)  -->
<svg version="1.1" id="Слой_1" xmlns="http://www.w3.org/2000/svg" xmlns:xlink="http://www.w3.org/1999/xlink" x="0px" y="0px"
	 viewBox="0 0 58 60" style="enable-background:new 0 0 58 60;" xml:space="preserve">
<style type="text/css">
	.st0{fill:#27A9BF;}
</style>
<title>typography-Design-font-letter-text</title>
<g>
	<path class="st0" d="M1,48c-0.6,0-1,0.4-1,1v6c0,0.6,0.4,1,1,1h56c0.6,0,1-0.4,1-1v-6c0-0.6-0.4-1-1-1h-2V33h2c0.6,0,1-0.4,1-1v-6
		c0-0.6-0.4-1-1-1h-2V8h2c0.6,0,1-0.4,1-1V1c0-0.6-0.4-1-1-1h-6c-0.6,0-1,0.4-1,1v2H33V1c0-0.6-0.4-1-1-1h-6c-0.6,0-1,0.4-1,1v2H8V1
		c0-0.6-0.4-1-1-1H1C0.4,0,0,0.4,0,1v6c0,0.6,0.4,1,1,1h2v17H1c-0.6,0-1,0.4-1,1v6c0,0.6,0.4,1,1,1h2v15H1z M56,54h-2v-2h-2v2h-2v-2
		h-2v2h-2v-2h-2v2h-2v-2h-2v2h-2v-2h-2v2h-2v-2h-2v2h-2v-2h-2v2h-2v-2h-2v2h-2v-2h-2v2h-2v-2h-2v2h-2v-2h-2v2h-2v-2H8v2H6v-2H4v2H2
		v-4h54V54z M56,31h-4v-4h4V31z M52,2h4v4h-4V2z M27,2h4v4h-4V2z M2,2h4v4H2V2z M2,27h4v4H2V27z M5,33h2c0.6,0,1-0.4,1-1v-6
		c0-0.6-0.4-1-1-1H5V8h2c0.6,0,1-0.4,1-1V5h17v2c0,0.6,0.4,1,1,1h6c0.6,0,1-0.4,1-1V5h17v2c0,0.6,0.4,1,1,1h2v17h-2
		c-0.6,0-1,0.4-1,1v6c0,0.6,0.4,1,1,1h2v15H5V33z"/>
	<rect x="31" y="29" class="st0" width="2" height="2"/>
	<path class="st0" d="M43,11H15c-0.6,0-1,0.4-1,1v12c0,0.6,0.4,1,1,1h4c0.6,0,1-0.4,1-1v-5h5v20h-5c-0.6,0-1,0.4-1,1v4
		c0,0.6,0.4,1,1,1h18c0.6,0,1-0.4,1-1v-4c0-0.6-0.4-1-1-1h-5v-6h-2v7c0,0.6,0.4,1,1,1h5v2H21v-2h5c0.6,0,1-0.4,1-1V18
		c0-0.6-0.4-1-1-1h-7c-0.6,0-1,0.4-1,1v5h-2V13h26v10h-2v-5c0-0.6-0.4-1-1-1h-7c-0.6,0-1,0.4-1,1v9h2v-8h5v5c0,0.6,0.4,1,1,1h4
		c0.6,0,1-0.4,1-1V12C44,11.4,43.6,11,43,11z"/>
	<rect x="9" y="58" class="st0" width="36" height="2"/>
	<rect x="47" y="58" class="st0" width="2" height="2"/>
</g>
</svg>
