<svg version="1.1" xmlns="http://www.w3.org/2000/svg" viewBox="0 0 90.9 82">
  <g fill="#36326B">
    <path d="M89.9,42h-5.2v-6c0-0.6-0.4-1-1-1H43.9V20.5h12.7c0.6,0,1-0.4,1-1V1c0-0.6-0.4-1-1-1H29.2c-0.6,0-1,0.4-1,1v18.5c0,0.6,0.4,1,1,1h12.7V35h-35c-0.6,0-1,0.4-1,1v6H1c-0.6,0-1,0.4-1,1v8c0,0.6,0.4,1,1,1h11.9c0.6,0,1-0.4,1-1v-8c0-0.6-0.4-1-1-1H7.9v-5h16v5H19c-0.6,0-1,0.4-1,1v8c0,0.6,0.4,1,1,1h11.9c0.6,0,1-0.4,1-1v-8c0-0.6-0.4-1-1-1h-4.9v-5h16v5H37c-0.6,0-1,0.4-1,1v8c0,0.6,0.4,1,1,1h11.9c0.6,0,1-0.4,1-1v-8c0-0.6-0.4-1-1-1h-4.9v-5h19v5H58c-0.6,0-1,0.4-1,1v8c0,0.6,0.4,1,1,1h4.9v5H58c-0.6,0-1,0.4-1,1v3h-6.1v-3c0-0.6-0.4-1-1-1H38c-0.6,0-1,0.4-1,1v8c0,0.6,0.4,1,1,1h11.9c0.6,0,1-0.4,1-1v-3H57v3c0,0.6,0.4,1,1,1h4.9v5H58c-0.6,0-1,0.4-1,1v8c0,0.6,0.4,1,1,1h11.9c0.6,0,1-0.4,1-1v-8c0-0.6-0.4-1-1-1h-4.9v-5h4.9c0.6,0,1-0.4,1-1v-8c0-0.6-0.4-1-1-1h-4.9v-5h4.9c0.6,0,1-0.4,1-1v-8c0-0.6-0.4-1-1-1h-4.9v-5h17.8v5H78c-0.6,0-1,0.4-1,1v8c0,0.6,0.4,1,1,1h11.9c0.6,0,1-0.4,1-1v-8C90.9,42.4,90.4,42,89.9,42z M11.9,44v6H2v-6H11.9z M29.9,44v6H20v-6H29.9z M47.9,44v6H38v-6H47.9z M30.2,18.5V2h25.4v16.5H30.2z M48.9,65H39v-6h9.9V65z M68.9,74v6H59v-6H68.9z M68.9,59v6H59v-6H68.9z M68.9,44v6H59v-6H68.9z M88.9,50H79v-6h9.9V50z"/>
    <path d="M34.1,7.1H37c0.6,0,1-0.4,1-1s-0.4-1-1-1h-2.9c-0.6,0-1,0.4-1,1S33.5,7.1,34.1,7.1z"/>
    <path d="M52.1,5.1H39.9c-0.6,0-1,0.4-1,1s0.4,1,1,1h12.2c0.6,0,1-0.4,1-1S52.7,5.1,52.1,5.1z"/>
    <path d="M52.1,9.2h-18c-0.6,0-1,0.4-1,1s0.4,1,1,1h18c0.6,0,1-0.4,1-1S52.7,9.2,52.1,9.2z"/>
    <path d="M43.9,13.4h-9.8c-0.6,0-1,0.4-1,1s0.4,1,1,1h9.8c0.6,0,1-0.4,1-1S44.5,13.4,43.9,13.4z"/>
    <path d="M52.1,13.4h-5.3c-0.6,0-1,0.4-1,1s0.4,1,1,1h5.3c0.6,0,1-0.4,1-1S52.7,13.4,52.1,13.4z"/>
  </g>
</svg>
