<?xml version="1.0" encoding="utf-8"?>
<!-- Generator: Adobe Illustrator 23.0.1, SVG Export Plug-In . SVG Version: 6.00 Build 0)  -->
<svg version="1.1" id="Слой_1" xmlns="http://www.w3.org/2000/svg" xmlns:xlink="http://www.w3.org/1999/xlink" x="0px" y="0px"
	 viewBox="0 0 60 48" style="enable-background:new 0 0 60 48;" xml:space="preserve">
<style type="text/css">
	.st0{fill:#3ECF9E;}
</style>
<title>camera-picture-photo camera-photograph</title>
<g>
	<path class="st0" d="M30,43c7.2,0,13-5.8,13-13s-5.8-13-13-13s-13,5.8-13,13S22.8,43,30,43z M30,19c6.1,0,11,4.9,11,11
		s-4.9,11-11,11s-11-4.9-11-11S23.9,19,30,19z"/>
	<path class="st0" d="M23,31c0.6,0,1-0.4,1-1c0-3.3,2.7-6,6-6c0.6,0,1-0.4,1-1s-0.4-1-1-1c-4.4,0-8,3.6-8,8C22,30.6,22.4,31,23,31z"
		/>
	<path class="st0" d="M59,0H43c-0.6,0-1,0.4-1,1v11H24V9c0-0.6-0.4-1-1-1h-6c-0.6,0-1,0.4-1,1v3h-2V9c0-0.6-0.4-1-1-1H3
		C2.4,8,2,8.4,2,9v3H1c-0.6,0-1,0.4-1,1v34c0,0.6,0.4,1,1,1h58c0.6,0,1-0.4,1-1V1C60,0.4,59.6,0,59,0z M44,2h14v10H44V2z M30,14
		c8.8,0,16,7.2,16,16s-7.2,16-16,16s-16-7.2-16-16S21.2,14,30,14z M18,10h4v2h-4V10z M4,10h8v2H4V10z M2,46V14h19.8
		C13,18.5,9.5,29.3,14,38.2c1.7,3.4,4.5,6.1,7.8,7.8H2z M58,46H38.2C47,41.5,50.5,30.7,46,21.8c-1.7-3.4-4.5-6.1-7.8-7.8H58V46z"/>
	<path class="st0" d="M55,4h-8c-0.6,0-1,0.4-1,1v4c0,0.6,0.4,1,1,1h8c0.6,0,1-0.4,1-1V5C56,4.4,55.6,4,55,4z M54,8h-6V6h6V8z"/>
	<path class="st0" d="M46,41c0,1.7,1.3,3,3,3s3-1.3,3-3s-1.3-3-3-3S46,39.3,46,41z M49,40c0.6,0,1,0.4,1,1s-0.4,1-1,1s-1-0.4-1-1
		S48.4,40,49,40z"/>
	<path class="st0" d="M5,40c-0.6,0-1,0.4-1,1v2c0,0.6,0.4,1,1,1s1-0.4,1-1v-2C6,40.4,5.6,40,5,40z"/>
	<path class="st0" d="M9,40c-0.6,0-1,0.4-1,1v2c0,0.6,0.4,1,1,1s1-0.4,1-1v-2C10,40.4,9.6,40,9,40z"/>
</g>
</svg>
