<?xml version="1.0" encoding="utf-8"?>
<!-- Generator: Adobe Illustrator 23.0.1, SVG Export Plug-In . SVG Version: 6.00 Build 0)  -->
<svg version="1.1" id="Слой_1" xmlns="http://www.w3.org/2000/svg" xmlns:xlink="http://www.w3.org/1999/xlink" x="0px" y="0px"
	 viewBox="0 0 89.9 54.7" enable-background="new 0 0 89.9 54.7" xml:space="preserve">
<g>
	<g>
		<path fill="#27A9BF" d="M89.9,26.1c0-0.8-0.4-1.6-1.2-2L46,0.3c-0.7-0.4-1.5-0.4-2.2,0L1.2,24.1c-0.7,0.4-1.2,1.2-1.2,2
			s0.4,1.6,1.2,2l20.2,11.3v2.7c0,0.1,0,0.2,0,0.3c0,0.2,0,0.3,0,0.5c0,6.8,11.8,10.4,23.5,10.4s23.5-3.6,23.5-10.4
			c0-0.2,0-0.3,0-0.5c0-0.1,0-0.2,0-0.3v-2.7L85.3,30v12.1c0,1.3,1,2.3,2.3,2.3s2.3-1,2.3-2.3V26.4C89.9,26.3,89.9,26.3,89.9,26.1
			L89.9,26.1z M63.9,36.5c-9-5.2-29-5.2-37.9,0v-7.3c0-2,6.7-5.8,19-5.8s19,3.8,19,5.8L63.9,36.5L63.9,36.5z M44.9,48.6
			c-12.3,0-19-3.9-19-5.8s6.7-5.8,19-5.8s19,3.8,19,5.8C63.9,44.8,57.2,48.6,44.9,48.6z M68.4,34.2v-5c0-13.6-47-13.6-47,0v5
			L6.9,26.1l38-21.2l38,21.2L68.4,34.2z"/>
		<path fill="#27A9BF" d="M87.6,45.2c-1.3,0-2.3,1-2.3,2.3v4.9c0,1.3,1,2.3,2.3,2.3s2.3-1,2.3-2.3v-5C89.9,46.2,88.9,45.2,87.6,45.2
			z"/>
	</g>
</g>
</svg>
