<?xml version="1.0" encoding="utf-8"?>
<!-- Generator: Adobe Illustrator 23.0.1, SVG Export Plug-In . SVG Version: 6.00 Build 0)  -->
<svg version="1.1" id="Слой_1" xmlns="http://www.w3.org/2000/svg" xmlns:xlink="http://www.w3.org/1999/xlink" x="0px" y="0px"
	 viewBox="0 0 60 60" style="enable-background:new 0 0 60 60;" xml:space="preserve">
<style type="text/css">
	.st0{fill:#3ECF9E;}
</style>
<g>
	<path class="st0" d="M14,37c-0.6,0-1,0.4-1,1v5c0,0.6,0.4,1,1,1s1-0.4,1-1v-5C15,37.4,14.6,37,14,37z"/>
	<path class="st0" d="M59,11h-3V1c0-0.6-0.4-1-1-1h-6c-0.6,0-1,0.4-1,1v10H1c-0.6,0-1,0.4-1,1v36c0,0.6,0.4,1,1,1h5v3
		c0,4.4,3.6,8,8,8s8-3.6,8-8v-3h37c0.6,0,1-0.4,1-1V12C60,11.4,59.6,11,59,11z M54,26h-4V6h4V26z M53.5,28L52,31.5L50.5,28H53.5z
		 M50,2h4v2h-4V2z M5.6,13L2,16.6V13H5.6z M7,14.4V18H3.4L7,14.4z M20,52c0,3.3-2.7,6-6,6s-6-2.7-6-6V40c0-3.3,2.7-6,6-6s6,2.7,6,6
		V52z M58,47H22v-7c0-4.4-3.6-8-8-8s-8,3.6-8,8v7H2V20h6c0.6,0,1-0.4,1-1v-6h39v14l0,0c0,0.1,0,0.2,0.1,0.3l0,0l0,0l3,7
		c0.2,0.5,0.8,0.7,1.3,0.5c0.2-0.1,0.4-0.3,0.5-0.5l3-7l0,0l0,0c0-0.1,0.1-0.2,0.1-0.3l0,0V13h2L58,47z"/>
	<path class="st0" d="M55,43h-2c-0.6,0-1,0.4-1,1s0.4,1,1,1h2c0.6,0,1-0.4,1-1S55.6,43,55,43z"/>
	<path class="st0" d="M49,43h-2c-0.6,0-1,0.4-1,1s0.4,1,1,1h2c0.6,0,1-0.4,1-1S49.6,43,49,43z"/>
	<path class="st0" d="M40.8,18.4c-0.3-0.4-1-0.5-1.4-0.1L29,26.7l-9.4-8.4c-0.3-0.3-0.9-0.3-1.2-0.1l-13,9c-0.5,0.3-0.6,0.9-0.3,1.4
		c0.3,0.5,0.9,0.6,1.4,0.3l0,0l12.4-8.5l9.4,8.5c0.4,0.3,0.9,0.3,1.3,0l11-9C41.1,19.4,41.1,18.8,40.8,18.4L40.8,18.4z"/>
	<path class="st0" d="M37.8,31.5c-0.3-0.5-1-0.6-1.4-0.3c-0.1,0.1-0.2,0.2-0.3,0.3l-5,8c-0.3,0.5-0.2,1.1,0.3,1.4
		c0.2,0.1,0.3,0.2,0.5,0.2h10c0.6,0,1-0.4,1-1c0-0.2-0.1-0.4-0.2-0.5L37.8,31.5z M33.8,39l3.2-5.1l3.2,5.1H33.8z"/>
</g>
</svg>
