<?xml version="1.0" encoding="utf-8"?>
<!-- Generator: Adobe Illustrator 23.0.1, SVG Export Plug-In . SVG Version: 6.00 Build 0)  -->
<svg version="1.1" id="Слой_1" xmlns="http://www.w3.org/2000/svg" xmlns:xlink="http://www.w3.org/1999/xlink" x="0px" y="0px"
	 viewBox="0 0 190.9 326.7" enable-background="new 0 0 190.9 326.7" xml:space="preserve">
<path fill="#36326B" d="M34.1,321c17-16.1,34-32.3,50.9-48.4c27.1-25.8,54.2-51.5,81.3-77.3c6.3-5.9,12.5-11.9,18.8-17.8
	c7.7-7.3,7.7-21,0-28.3c-17-16.1-34-32.3-50.9-48.4C107.1,75,80,49.3,52.9,23.5c-6.3-5.9-12.5-11.9-18.8-17.8
	c-7.6-7.2-20.9-8.1-28.3,0c-7.2,7.8-8.1,20.6,0,28.3c17,16.1,34,32.3,50.9,48.4c27.1,25.8,54.2,51.5,81.3,77.3
	c6.3,5.9,12.5,11.9,18.8,17.8c0-9.4,0-18.9,0-28.3c-17,16.1-34,32.3-50.9,48.4c-27.1,25.8-54.2,51.5-81.3,77.3
	c-6.3,5.9-12.5,11.9-18.8,17.8c-7.6,7.2-7.8,21.1,0,28.3C13.9,328.4,25.9,328.7,34.1,321L34.1,321z"/>
</svg>
