<?xml version="1.0" encoding="utf-8"?>
<!-- Generator: Adobe Illustrator 23.0.1, SVG Export Plug-In . SVG Version: 6.00 Build 0)  -->
<svg version="1.1" id="Слой_1" xmlns="http://www.w3.org/2000/svg" xmlns:xlink="http://www.w3.org/1999/xlink" x="0px" y="0px"
	 viewBox="0 0 100 100" enable-background="new 0 0 100 100" xml:space="preserve">
<path fill="#36326B" d="M28.6,0C12.8,0,0,12.6,0,28.2c0,4.8,1.2,9.4,3.6,13.6c-0.5,2.9-0.8,5.8-0.8,8.8c0,26,21.4,47.1,47.8,47.1
	c2.7,0,5.4-0.2,8.1-0.6c4,2,8.4,3,12.9,3c15.7,0,28.6-12.6,28.6-28.2c0-4.2-0.9-8.2-2.7-11.9c0.6-3.1,1-6.2,1-9.4
	c0-26-21.5-47.1-47.8-47.1c-2.5,0-5,0.2-7.4,0.6C38.7,1.4,33.7,0,28.6,0z M50.2,18.8c4.1,0,7.7,0.4,10.7,1.4c3,0.9,5.6,2.1,7.6,3.7
	c2,1.6,3.6,3.2,4.5,4.9c1,1.7,1.4,3.5,1.4,5.2c0,1.6-0.7,3-1.9,4.3s-2.8,1.9-4.7,1.9c-1.7,0-3-0.4-3.9-1.2c-0.9-0.8-1.8-1.9-2.8-3.6
	c-1.1-2.1-2.5-3.9-4.1-5.1c-1.5-1.1-4.2-1.7-7.7-1.7c-3.3,0-6,0.6-7.9,1.9c-1.9,1.2-2.8,2.7-2.8,4.4c0,1,0.3,1.9,0.9,2.6
	c0.7,0.8,1.5,1.4,2.7,2c1.2,0.6,2.4,1.1,3.7,1.4c1.3,0.3,3.4,0.9,6.4,1.6c3.7,0.8,7.1,1.6,10.1,2.6c3,1,5.7,2.2,7.8,3.6
	c2.2,1.4,4,3.2,5.2,5.4s1.8,4.8,1.8,7.9c0,3.7-1.1,7.1-3.2,10.1c-2.1,3-5.3,5.3-9.3,7c-4,1.6-8.8,2.4-14.3,2.4
	c-6.6,0-12.1-1.1-16.4-3.4c-3.1-1.6-5.6-3.9-7.6-6.6c-2-2.8-2.9-5.5-2.9-8.1c0-1.6,0.7-3.1,1.9-4.2c1.3-1.2,2.8-1.8,4.8-1.8
	c1.6,0,3,0.5,4.1,1.4c1.1,0.9,2,2.2,2.7,3.9c0.8,1.8,1.7,3.3,2.6,4.6c0.9,1.2,2.2,2.2,3.8,2.9c1.7,0.8,3.9,1.2,6.7,1.2
	c3.8,0,6.9-0.8,9.2-2.4c2.3-1.5,3.4-3.4,3.4-5.6c0-1.8-0.6-3.2-1.8-4.3c-1.2-1.1-2.9-2-4.9-2.6c-2.1-0.6-4.9-1.3-8.4-2.1
	c-4.8-1-8.8-2.2-12-3.6c-3.3-1.4-5.9-3.3-7.9-5.7c-2-2.4-3-5.4-3-9c0-3.4,1.1-6.5,3.1-9.2c2-2.6,5-4.7,8.9-6.1
	C40.5,19.4,45.1,18.8,50.2,18.8z"/>
</svg>
