<?xml version="1.0" encoding="utf-8"?>
<!-- Generator: Adobe Illustrator 23.0.1, SVG Export Plug-In . SVG Version: 6.00 Build 0)  -->
<svg version="1.1" id="Слой_1" xmlns="http://www.w3.org/2000/svg" xmlns:xlink="http://www.w3.org/1999/xlink" x="0px" y="0px"
	 viewBox="0 0 85 64" style="enable-background:new 0 0 85 64;" xml:space="preserve">
<style type="text/css">
	.st0{fill:#27A9BF;}
</style>
<g>
	<path class="st0" d="M72,27.2C71.6,12.1,58.5,0,42.5,0S13.5,12.1,13,27.2C5.7,28.4,0,36.1,0,45.5C0,55.7,6.7,64,14.9,64h1.7
		c3,0,5.4-2.8,5.4-6.3V33.3c0-3.3-2.2-6.1-5-6.3C17.5,14.2,28.7,4,42.5,4c13.7,0,25,10.2,25.5,23c-2.8,0.3-5,3-5,6.3v24.3
		c0,3.5,2.4,6.3,5.4,6.3h1.7C78.3,64,85,55.7,85,45.5C85,36.1,79.3,28.3,72,27.2z M4,45.5c0-6.2,2.9-11.4,7-13.5v27
		C6.9,56.9,4,51.7,4,45.5z M18,33.3v24.3c0,1.3-0.7,2.3-1.4,2.3H15V31h1.6C17.3,31,18,32,18,33.3z M67,57.7V33.3
		c0-1.3,0.7-2.3,1.4-2.3H70v29h-1.6C67.7,60,67,59,67,57.7z M74,59V32c4.1,2.1,7,7.4,7,13.5S78.1,56.9,74,59z"/>
</g>
</svg>
