<?xml version="1.0" encoding="utf-8"?>
<!-- Generator: Adobe Illustrator 23.0.1, SVG Export Plug-In . SVG Version: 6.00 Build 0)  -->
<svg version="1.1" id="Слой_1" xmlns="http://www.w3.org/2000/svg" xmlns:xlink="http://www.w3.org/1999/xlink" x="0px" y="0px"
	 viewBox="0 0 71.1 54.7" style="enable-background:new 0 0 71.1 54.7;" xml:space="preserve">
<style type="text/css">
	.st0{fill:#27A9BF;}
</style>
<path class="st0" d="M21.1,42.5c-0.7-0.4-1.6-0.2-2.1,0.5l-2.2,3.6c-0.4,0.7-0.2,1.6,0.5,2.1c0.2,0.1,0.5,0.2,0.8,0.2
	c0.5,0,1-0.3,1.3-0.7l2.2-3.6C22,43.9,21.8,42.9,21.1,42.5z M70.8,52.3L58.7,25.8c-0.2-0.4-0.6-0.8-1.1-0.9s-1,0.1-1.3,0.4l-3.8,3.8
	l-15.7-26c-0.3-0.5-0.8-0.7-1.3-0.7s-1,0.3-1.3,0.7l-8.8,14.5l0,0l-4.2,6.9l-4.2-4c-0.4-0.3-0.8-0.5-1.3-0.4
	c-0.5,0.1-0.9,0.4-1.1,0.8L0.1,52.5C-0.1,53,0,53.5,0.2,54s0.8,0.7,1.3,0.7h68.1c0.8,0,1.5-0.7,1.5-1.5C71.1,52.9,71,52.6,70.8,52.3
	z M35.5,6.8l7.3,12.1h-2.4c-0.5,0-1,0.3-1.3,0.7l-1.2,1.9L35.3,17c-0.3-0.4-0.8-0.7-1.3-0.7l0,0c-0.5,0-1,0.3-1.3,0.7l-2.4,4
	l-1.8-2.6L35.5,6.8z M26.8,21.2l1.8,2.6l-1.2,1.9c-0.4,0.7-0.2,1.6,0.5,2.1c0.2,0.1,0.5,0.2,0.8,0.2c0.5,0,1-0.3,1.3-0.7l4-6.6
	l2.7,4.4c0.3,0.4,0.8,0.7,1.3,0.7s1-0.3,1.3-0.7l2-3.3h3.3l9,15h-3.5l0,0c-0.1,0-0.1,0-0.2,0h-0.1h-0.1h-0.1c0,0-0.1,0-0.1,0.1
	c0,0-0.1,0-0.1,0.1l-0.1,0.1l-0.1,0.1l-0.1,0.1L49,37.4l0,0l-1.8,3L45,36.7l0,0l-0.1-0.1l-0.1-0.1l-0.1-0.1l-0.1-0.1l0,0
	c0,0,0,0-0.1,0c0,0-0.1,0-0.1-0.1h-0.1h-0.1h-0.1H44h-0.1h-0.1h-0.1h-0.1c-0.1,0-0.1,0-0.1,0.1c0,0,0,0-0.1,0l0,0l-0.1,0.1l-0.1,0.1
	l-0.1,0.1L43,36.7c0,0,0,0,0,0.1l-4.1,6.8L32,33.2c-0.3-0.5-0.8-0.7-1.3-0.7s-1,0.2-1.3,0.7l-3.5,5.9L25,37.6l0,0l-0.1-0.1l-0.1-0.1
	l-0.1-0.1l-0.1-0.1c0,0-0.1,0-0.1-0.1c0,0-0.1,0-0.1-0.1c0,0-0.1,0-0.1-0.1h-0.1h-0.1H24l0,0h-6.2L26.8,21.2z M3.8,51.7l12.6-27.6
	l3.3,3.1l-6.1,10.2c-0.1,0.1-0.2,0.3-0.3,0.5L5,51.7H3.8z M8.5,51.7l7.1-11.8h7.1l1.8,3l0,0c0.1,0.1,0.1,0.2,0.2,0.2l0,0
	c0.1,0.1,0.2,0.1,0.3,0.2l0,0c0.1,0,0.2,0.1,0.2,0.1h0.1c0.1,0,0.2,0,0.3,0c0,0,0,0,0.1,0l0,0c0,0,0,0,0.1,0s0.2,0,0.3,0h0.1
	c0.1,0,0.2-0.1,0.2-0.1l0,0c0.1-0.1,0.2-0.1,0.3-0.2l0,0c0.1-0.1,0.1-0.2,0.2-0.2l0,0l3.6-6l6.3,10.4l0,0c0.1,0.1,0.1,0.2,0.2,0.2
	l0,0c0.1,0.1,0.2,0.1,0.3,0.2l0,0c0.1,0,0.2,0.1,0.3,0.1h0.1c0.1,0,0.2,0,0.3,0l0,0l0,0l0,0c0.1,0,0.2,0,0.3,0h0.1
	c0.1,0,0.2-0.1,0.3-0.1l0,0c0.1-0.1,0.2-0.1,0.3-0.2l0,0c0.1-0.1,0.1-0.2,0.2-0.2l0,0l4.1-6.8l2.2,3.7l0,0c0.1,0.1,0.1,0.2,0.2,0.2
	l0,0c0.1,0.1,0.2,0.1,0.3,0.2l0,0c0.1,0,0.2,0.1,0.3,0.1h0.1c0.1,0,0.2,0,0.3,0l0,0l0,0l0,0c0.1,0,0.2,0,0.3,0h0.1
	c0.1,0,0.2-0.1,0.3-0.1l0,0c0.1-0.1,0.2-0.1,0.3-0.2l0,0c0.1-0.1,0.1-0.2,0.2-0.2l0,0l2.6-4.4h4.4L62,51.6L8.5,51.7L8.5,51.7z
	 M66.1,51.7l-12-19.9l2.8-2.8l10.3,22.6L66.1,51.7L66.1,51.7z M40.8,32c0.3,0.5,0.8,0.7,1.3,0.7c0.3,0,0.5-0.1,0.8-0.2
	c0.7-0.4,0.9-1.3,0.5-2.1l-1.8-2.9c-0.4-0.7-1.3-0.9-2.1-0.5c-0.7,0.4-0.9,1.3-0.5,2.1L40.8,32z M52.4,12.1c3.3,0,6.1-2.7,6.1-6.1
	s-2.7-6-6.1-6s-6.1,2.7-6.1,6.1S49.1,12.1,52.4,12.1z M52.4,3c1.7,0,3.1,1.4,3.1,3.1s-1.4,3.1-3.1,3.1s-3.1-1.4-3.1-3.1
	S50.7,3,52.4,3z"/>
</svg>
