<?xml version="1.0" encoding="utf-8"?>
<!-- Generator: Adobe Illustrator 23.0.1, SVG Export Plug-In . SVG Version: 6.00 Build 0)  -->
<svg version="1.1" id="Слой_1" xmlns="http://www.w3.org/2000/svg" xmlns:xlink="http://www.w3.org/1999/xlink" x="0px" y="0px"
	 viewBox="0 0 39.6 47.2" style="enable-background:new 0 0 39.6 47.2;" xml:space="preserve">
<style type="text/css">
	.st0{fill:#27A9BF;}
</style>
<path class="st0" d="M37.4,37.3c-0.1-4.2-1.2-8.5-3.1-9.1V15c0.1-0.1,0.1-0.3,0.1-0.4c0-0.1-0.1-0.1-0.1-0.2V6.3
	c0-0.9-0.7-1.6-1.6-1.6h-5.9v-2c0-1.5-1.2-2.7-2.7-2.7h-8.5c-1.5,0-2.7,1.2-2.7,2.7v2h-6C6,4.7,5.3,5.4,5.3,6.3v21.9
	c-2,0.6-3,4.9-3.1,9.1C1,37.6,0,38.7,0,40v4.6c0,1.5,1.2,2.7,2.7,2.7h5.9h2.1h18.2H31h5.9c1.5,0,2.7-1.2,2.7-2.7V40
	C39.6,38.7,38.7,37.6,37.4,37.3z M36.4,37.3h-2.1v-7.9C35.3,30.1,36.4,33,36.4,37.3z M31.1,37.3L31.1,37.3H29l0,0H10.7l0,0H8.6l0,0
	H6.3V15.4c0.9,0.2,1.8,0.4,2.8,0.6l0,0v0.6c0,1.3,1.1,2.4,2.4,2.4s2.4-1.1,2.4-2.4c1.9,0.2,3.9,0.3,5.8,0.3c2,0,3.9-0.1,5.8-0.3
	c0,1.3,1.1,2.4,2.4,2.4s2.4-1.1,2.4-2.4V16c1-0.2,1.9-0.4,2.8-0.6v21.9H31.1L31.1,37.3z M28.4,38.3v8H11.2v-8H28.4z M10.1,16.5v-2
	c0-0.8,0.6-1.4,1.4-1.4s1.4,0.6,1.4,1.4v2c0,0.8-0.6,1.4-1.4,1.4S10.1,17.3,10.1,16.5z M26.7,16.5v-2c0-0.8,0.6-1.4,1.4-1.4
	s1.4,0.6,1.4,1.4v2c0,0.8-0.6,1.4-1.4,1.4S26.7,17.3,26.7,16.5z M13.9,2.7c0-0.9,0.8-1.7,1.7-1.7h8.5c0.9,0,1.7,0.8,1.7,1.7v2H13.9
	V2.7z M6.9,5.7h25.8c0.3,0,0.6,0.3,0.6,0.6v8.1c-0.9,0.2-1.9,0.4-2.8,0.6v-0.4c0-1.3-1.1-2.4-2.4-2.4s-2.4,1.1-2.4,2.4v1.1
	c-3.8,0.3-7.9,0.3-11.7,0v-1.1c0-1.3-1.1-2.4-2.4-2.4s-2.4,1.1-2.4,2.4V15c-1-0.2-1.9-0.4-2.8-0.6V6.3C6.3,5.9,6.6,5.7,6.9,5.7z
	 M5.3,29.3v7.9H3.2C3.3,33,4.3,30.1,5.3,29.3z M1,44.6V40c0-0.9,0.8-1.7,1.7-1.7h5.4v8H2.7C1.8,46.3,1,45.5,1,44.6z M9.1,46.3v-8
	h1.1v8H9.1z M29.4,46.3v-8h1.1v8H29.4z M38.6,44.6c0,0.9-0.8,1.7-1.7,1.7h-5.4v-8h5.4c0.9,0,1.7,0.8,1.7,1.7V44.6z"/>
<path class="st0" d="M28.1,24.8H11.5c-0.3,0-0.5,0.2-0.5,0.5v3.3c0,1.5,1.2,2.7,2.7,2.7H26c1.5,0,2.7-1.2,2.7-2.7v-3.3
	C28.6,25,28.4,24.8,28.1,24.8z M26,30.3H13.7c-0.9,0-1.7-0.8-1.7-1.7v-2.8h15.6v2.8C27.6,29.6,26.9,30.3,26,30.3z"/>
</svg>
