<?xml version="1.0" encoding="utf-8"?>
<!-- Generator: Adobe Illustrator 23.0.1, SVG Export Plug-In . SVG Version: 6.00 Build 0)  -->
<svg version="1.1" id="Layer_1" xmlns="http://www.w3.org/2000/svg" xmlns:xlink="http://www.w3.org/1999/xlink" x="0px" y="0px"
	 viewBox="0 0 62.2 41.4" enable-background="new 0 0 62.2 41.4" xml:space="preserve">
<g>
	<polygon fill="#21966E" points="43.4,20.7 62.2,39.5 62.2,1.9 	"/>
	<path fill="#21966E" d="M32.9,27.5L60.4,0c0,0,0,0-0.1,0H1.9l27.5,27.5C30.4,28.4,32,28.4,32.9,27.5z"/>
	<path fill="#21966E" d="M34.8,29.4c-1,1-2.2,1.5-3.6,1.5s-2.6-0.5-3.6-1.5l-7-7l-19,19c0.1,0,0.2,0,0.2,0h58.5L41.6,22.6L34.8,29.4
		z"/>
	<path fill="#21966E" d="M0,1.8L0,1.8v37.4l18.7-18.7L0,1.8z"/>
</g>
</svg>
