<?xml version="1.0" encoding="utf-8"?>
<!-- Generator: Adobe Illustrator 23.0.1, SVG Export Plug-In . SVG Version: 6.00 Build 0)  -->
<svg version="1.1"
	 id="Слой_1" xmlns:cc="http://creativecommons.org/ns#" xmlns:dc="http://purl.org/dc/elements/1.1/" xmlns:inkscape="http://www.inkscape.org/namespaces/inkscape" xmlns:rdf="http://www.w3.org/1999/02/22-rdf-syntax-ns#" xmlns:sodipodi="http://sodipodi.sourceforge.net/DTD/sodipodi-0.dtd" xmlns:svg="http://www.w3.org/2000/svg"
	 xmlns="http://www.w3.org/2000/svg" xmlns:xlink="http://www.w3.org/1999/xlink" x="0px" y="0px" viewBox="0 0 90 80"
	 enable-background="new 0 0 90 80" xml:space="preserve">
<g transform="translate(0,-952.36218)">
	<path fill="#27A9BF" d="M30.7,952.4c-1.5,0.2-2.7,1.5-2.7,3v7H5c-1.5,0-2.7,0.6-3.5,1.5s-1.5,2-1.5,3.5c0,19.7,0,39.3,0,59
		c0,1.5,0.4,3.2,1.6,4.4c1.2,1.2,2.9,1.7,4.4,1.7h78c1.5,0,3.2-0.4,4.4-1.7c1.2-1.2,1.6-2.8,1.6-4.3c0-19.4,0-40.8,0-59
		c0-1.5-0.7-2.7-1.5-3.5s-2-1.5-3.5-1.5H62v-7c0-1.6-1.4-3-3-3C49.6,952.4,40.1,952.4,30.7,952.4z M34,958.4h22v4H34V958.4z
		 M6,968.4c26,0,52,0,78,0c0,6.4,0,12.8,0,19.2c-0.2,1-1.1,2.1-3,3.1c-1.9,1-4.6,1.6-7,1.6c0,0,0,0,0,0H53v-3c0-1.3-0.5-2.4-1.2-3.3
		s-1.8-1.7-3.4-1.7h-6.7c-1.6,0-2.7,0.8-3.4,1.7s-1.2,2-1.2,3.3v3H16c0,0,0,0,0,0c-2.4,0-5-0.6-7-1.6c-1.9-1-2.8-2.2-3-3.1
		C6,981.2,6,974.8,6,968.4z M43,990.4h4v10h-4V990.4z M6,995.9c0.1,0,0.1,0.1,0.2,0.1c3,1.5,6.4,2.3,9.8,2.3c0,0,0,0,0,0h21v3
		c0,1.3,0.5,2.4,1.2,3.3c0.7,0.9,1.8,1.7,3.4,1.7h6.7c1.6,0,2.7-0.8,3.4-1.7c0.7-0.9,1.2-1.9,1.2-3.3v-3h21c0,0,0,0,0,0
		c3.4,0,6.8-0.8,9.8-2.3c0.1,0,0.1-0.1,0.2-0.1v30.4H6C6,1016.4,6,1006,6,995.9z"/>
</g>
</svg>
