<?xml version="1.0" encoding="utf-8"?>
<!-- Generator: Adobe Illustrator 23.0.1, SVG Export Plug-In . SVG Version: 6.00 Build 0)  -->
<svg version="1.1" id="Слой_1" xmlns="http://www.w3.org/2000/svg" xmlns:xlink="http://www.w3.org/1999/xlink" x="0px" y="0px"
	 viewBox="0 0 90 65.8" style="enable-background:new 0 0 90 65.8;" xml:space="preserve">
<style type="text/css">
	.st0{fill:#3ECF9E;}
</style>
<g>
	<path class="st0" d="M84.8,4.5V4.1c0-2.3-1.8-4.1-4-4.1H49.9C48,0,46.2,0.9,45,2.3C43.8,0.9,42,0,40.1,0H9.2C7,0,5.1,1.8,5.1,4v0.4
		C2.2,5.2,0,7.8,0,10.9v43c0,3.7,3,6.7,6.6,6.7h30.8c0.3,0,0.7,0.2,0.7,0.5c0.9,2.8,3.4,4.6,6.3,4.6h1.1c2.9,0,5.4-1.9,6.3-4.6
		c0.1-0.3,0.4-0.5,0.7-0.5h30.8c3.7,0,6.6-3,6.6-6.7v-43C90,7.8,87.8,5.2,84.8,4.5z M46.2,6.3c0-0.4,0.1-0.8,0.2-1.1
		c0.2-0.1,0.4-0.3,0.5-0.5c0.6-1,1.7-1.7,3-1.7h30.8c0.3,0.2,0.5,0.6,0.5,1v46.5c0,0.7-0.6,1.2-1.2,1.2H49c-1,0-2,0.6-2.8,1.3V6.9
		c0-0.1,0-0.2-0.1-0.3C46.2,6.5,46.2,6.4,46.2,6.3z M8.8,4c0-0.4,0.2-0.8,0.5-1h30.8c1.4,0,2.6,0.8,3.1,2.1c0.1,0.2,0.3,0.4,0.5,0.6
		c0,0.2,0.1,0.4,0.1,0.7c0,0.1,0,0.2,0.1,0.3c0,0.1-0.1,0.2-0.1,0.3v46c-0.9-0.7-1.9-1.2-3.2-1.3H10c-0.7,0-1.2-0.6-1.2-1.2V4z
		 M87,54c0,2-1.6,3.7-3.6,3.7H52.6c-1.7,0-3.1,1.1-3.6,2.6s-1.9,2.5-3.4,2.5h-1.1c-1.6,0-3-1-3.4-2.5c-0.5-1.5-2-2.6-3.6-2.6H6.7
		C4.6,57.6,3,56,3,54V11c0-1.9,1.4-3.4,3.3-3.6v43.2c0,2.1,1.7,3.7,3.7,3.7h30.4c2.1,0.1,3.4,2.8,3.4,2.8c0.2,0.4,0.6,0.7,1.1,0.7
		c0,0,0,0,0.1,0c0.4,0,0.8-0.2,1.1-0.6c0.7-1.2,2.2-2.9,3-2.9H80c2.1,0,3.7-1.7,3.7-3.7V7.3C85.5,7.5,87,9,87,10.9V54z"/>
	<path class="st0" d="M14.4,11.1h22.8c0.6,0,1-0.4,1-1s-0.4-1-1-1H14.4c-0.6,0-1,0.4-1,1S13.9,11.1,14.4,11.1z"/>
	<path class="st0" d="M14.4,19.8h11.7c0.6,0,1-0.4,1-1s-0.4-1-1-1H14.4c-0.6,0-1,0.4-1,1S13.9,19.8,14.4,19.8z"/>
	<path class="st0" d="M37.2,17.8h-7c-0.6,0-1,0.4-1,1s0.4,1,1,1h7c0.6,0,1-0.4,1-1S37.8,17.8,37.2,17.8z"/>
	<path class="st0" d="M14.4,28.5h22.8c0.6,0,1-0.4,1-1s-0.4-1-1-1H14.4c-0.6,0-1,0.4-1,1S13.9,28.5,14.4,28.5z"/>
	<path class="st0" d="M14.4,37.2h4.1c0.6,0,1-0.4,1-1s-0.4-1-1-1h-4.1c-0.6,0-1,0.4-1,1S13.9,37.2,14.4,37.2z"/>
	<path class="st0" d="M37.2,35.2H22.5c-0.6,0-1,0.4-1,1s0.4,1,1,1h14.7c0.6,0,1-0.4,1-1S37.8,35.2,37.2,35.2z"/>
	<path class="st0" d="M14.4,45.9h22.8c0.6,0,1-0.4,1-1s-0.4-1-1-1H14.4c-0.6,0-1,0.4-1,1S13.9,45.9,14.4,45.9z"/>
	<path class="st0" d="M70,11.1h5.6c0.6,0,1-0.4,1-1s-0.4-1-1-1H70c-0.6,0-1,0.4-1,1S69.4,11.1,70,11.1z"/>
	<path class="st0" d="M52.8,11.1h13c0.6,0,1-0.4,1-1s-0.4-1-1-1h-13c-0.6,0-1,0.4-1,1S52.2,11.1,52.8,11.1z"/>
	<path class="st0" d="M52.8,19.8h22.8c0.6,0,1-0.4,1-1s-0.4-1-1-1H52.8c-0.6,0-1,0.4-1,1S52.2,19.8,52.8,19.8z"/>
	<path class="st0" d="M52.8,28.5h2.9c0.6,0,1-0.4,1-1s-0.4-1-1-1h-2.9c-0.6,0-1,0.4-1,1S52.2,28.5,52.8,28.5z"/>
	<path class="st0" d="M75.6,26.5H59.8c-0.6,0-1,0.4-1,1s0.4,1,1,1h15.7c0.6,0,1-0.4,1-1S76.1,26.5,75.6,26.5z"/>
	<path class="st0" d="M75.6,35.2H52.8c-0.6,0-1,0.4-1,1s0.4,1,1,1h22.8c0.6,0,1-0.4,1-1S76.1,35.2,75.6,35.2z"/>
	<path class="st0" d="M75.6,43.9H52.8c-0.6,0-1,0.4-1,1s0.4,1,1,1h22.8c0.6,0,1-0.4,1-1S76.1,43.9,75.6,43.9z"/>
</g>
</svg>
