<?xml version="1.0" encoding="utf-8"?>
<!-- Generator: Adobe Illustrator 23.0.1, SVG Export Plug-In . SVG Version: 6.00 Build 0)  -->
<svg version="1.1" id="Слой_1" xmlns="http://www.w3.org/2000/svg" xmlns:xlink="http://www.w3.org/1999/xlink" x="0px" y="0px"
	 viewBox="0 0 100 61.5" style="enable-background:new 0 0 100 61.5;" xml:space="preserve">
<style type="text/css">
	.st0{fill:#3ECF9E;}
</style>
<g>
	<path class="st0" d="M20.6,61.5C9.3,61.5,0,52.2,0,40.8s9.3-20.7,20.6-20.7s20.7,9.3,20.7,20.7S32,61.5,20.6,61.5z M20.6,23.6
		c-9.5,0-17.2,7.7-17.2,17.2S11.1,58,20.6,58s17.2-7.7,17.2-17.2C37.9,31.3,30.1,23.6,20.6,23.6z"/>
	<path class="st0" d="M79.3,61.5c-11.4,0-20.7-9.3-20.7-20.7S68,20.2,79.3,20.2S100,29.5,100,40.8S90.7,61.5,79.3,61.5z M79.3,23.6
		c-9.5,0-17.2,7.7-17.2,17.2S69.8,58,79.3,58s17.2-7.7,17.2-17.2C96.6,31.3,88.8,23.6,79.3,23.6z"/>
	<path class="st0" d="M71.4,16.3H37.3c-0.9,0-1.7-0.8-1.7-1.7s0.8-1.7,1.7-1.7h34.1c0.9,0,1.7,0.8,1.7,1.7S72.3,16.3,71.4,16.3z"/>
	<path class="st0" d="M20.6,42.6c-0.3,0-0.6-0.1-0.9-0.3c-0.8-0.5-1-1.6-0.5-2.4l16.6-26.3c0.5-0.8,1.6-1,2.4-0.5
		c0.8,0.5,1,1.6,0.5,2.4L22.1,41.8C21.8,42.3,21.2,42.6,20.6,42.6z"/>
	<path class="st0" d="M51.6,39.8c-0.4,0-0.8-0.1-1.1-0.4c-0.7-0.6-0.8-1.7-0.2-2.4L70,13.5c0.6-0.7,1.7-0.8,2.4-0.2
		c0.7,0.6,0.8,1.7,0.2,2.4L52.9,39.2C52.6,39.6,52.1,39.8,51.6,39.8z"/>
	<path class="st0" d="M47.9,39.3c-0.7,0-1.3-0.4-1.6-1L30.9,2.4c-0.4-0.9,0-1.9,0.9-2.2c0.9-0.4,1.9,0,2.2,0.9L49.4,37
		c0.4,0.9,0,1.9-0.9,2.2C48.4,39.3,48.1,39.3,47.9,39.3z"/>
	<path class="st0" d="M45.7,42.6H20.6c-0.9,0-1.7-0.8-1.7-1.7s0.8-1.7,1.7-1.7h25.1c0.9,0,1.7,0.8,1.7,1.7S46.7,42.6,45.7,42.6z"/>
	<path class="st0" d="M42.2,3.4H27.7c-0.9,0-1.7-0.8-1.7-1.7S26.7,0,27.7,0h14.5c0.9,0,1.7,0.8,1.7,1.7S43.1,3.4,42.2,3.4z"/>
	<path class="st0" d="M79.3,42.6c-0.7,0-1.4-0.5-1.6-1.2l-8-26.3c0-0.2-0.1-0.3-0.1-0.5V4.1c0-0.9,0.8-1.7,1.7-1.7S73,3.2,73,4.1
		v10.2l8,26c0.3,0.9-0.2,1.9-1.1,2.1C79.7,42.5,79.5,42.6,79.3,42.6z"/>
	<path class="st0" d="M81.7,16.1c-0.9,0-1.7-0.8-1.7-1.7s0.8-1.7,1.7-1.7c1.8,0,3.4-1.6,3.4-3.4c0-1.9-1.5-3.4-3.4-3.4H71.4
		c-0.9,0-1.7-0.8-1.7-1.7s0.8-1.7,1.7-1.7h10.4c3.7,0,6.8,3.1,6.8,6.8S85.5,16.1,81.7,16.1z"/>
	<path class="st0" d="M49.3,46.2c-2.9,0-5.3-2.4-5.3-5.3c0-2.9,2.4-5.3,5.3-5.3c2.9,0,5.3,2.4,5.3,5.3S52.3,46.2,49.3,46.2z
		 M49.3,39c-1,0-1.9,0.9-1.9,1.9c0,1.1,0.8,1.9,1.9,1.9c1,0,1.9-0.9,1.9-1.9C51.2,39.8,50.3,39,49.3,39z"/>
</g>
</svg>
