<?xml version="1.0" encoding="utf-8"?>
<!-- Generator: Adobe Illustrator 23.0.1, SVG Export Plug-In . SVG Version: 6.00 Build 0)  -->
<svg version="1.1" id="Layer_1" xmlns="http://www.w3.org/2000/svg" xmlns:xlink="http://www.w3.org/1999/xlink" x="0px" y="0px"
	 viewBox="0 0 49.4 50.3" enable-background="new 0 0 49.4 50.3" xml:space="preserve">
<path fill="#21966E" d="M45.6,36.4c-1.5-1.3-3.2-2.4-4.7-3.4c-3.2-2.4-6.2-2.4-8.6,1.3c-1.3,2.1-3.2,2.1-5.1,1.3
	C21.9,33,17.6,29.3,15,23.8c-1.1-2.4-1.1-4.7,1.5-6.4c1.3-0.9,2.8-1.9,2.6-4.1c-0.2-2.6-6.4-11.3-9-12.2C9,0.7,7.9,0.7,6.9,1.1
	C1.1,3-1.5,7.9,0.9,13.5c6.9,17.1,19.3,28.9,36,36.2c1.1,0.4,2.1,0.4,2.6,0.6c3.9,0,8.4-3.6,9.6-7.3C50.3,39.6,47.8,38.1,45.6,36.4z
	"/>
</svg>
