<?xml version="1.0" encoding="utf-8"?>
<!-- Generator: Adobe Illustrator 23.0.1, SVG Export Plug-In . SVG Version: 6.00 Build 0)  -->
<svg version="1.1" id="Слой_1" xmlns="http://www.w3.org/2000/svg" xmlns:xlink="http://www.w3.org/1999/xlink" x="0px" y="0px"
	 viewBox="0 0 50 50" enable-background="new 0 0 50 50" xml:space="preserve">
<g>
	<path fill="#36326B" d="M50,24.5c0-1.1-0.9-2-2-2H29.5c-1.1,0-2-0.9-2-2V2c0-1.1-0.9-2-2-2h-1c-1.1,0-2,0.9-2,2v18.5
		c0,1.1-0.9,2-2,2H2c-1.1,0-2,0.9-2,2v1c0,1.1,0.9,2,2,2h18.5c1.1,0,2,0.9,2,2V48c0,1.1,0.9,2,2,2h1c1.1,0,2-0.9,2-2V29.5
		c0-1.1,0.9-2,2-2H48c1.1,0,2-0.9,2-2V24.5z"/>
</g>
</svg>
