<svg version="1.1" viewBox="0 0 90.4 59.9">
  <g fill="#3ECF9E">
    <path d="M28.5,34.6c-9.3,0-16.8-7.8-16.8-17.3S19.2,0,28.5,0s16.8,7.8,16.8,17.3S37.8,34.6,28.5,34.6z M28.5,31.5c7.6,0,13.8-6.4,13.8-14.3S36.1,3,28.5,3S14.7,9.4,14.7,17.3S20.9,31.5,28.5,31.5z"/>
    <path d="M40,56.5h-3.4H18.3h-12C4.5,56.5,3,55,3,53.2v-1.8c0-1.8,0.9-3.4,2.4-4.3l13.8-8.5c2.6,1.1,5.4,1.6,8.2,1.6s5.6-0.6,8.2-1.6l5.1,3.1c0.7-0.7,1.5-1.5,2.2-2.2l-6.4-3.9l-0.7-0.4c-2.6,1.3-5.4,2-8.5,2s-5.9-0.7-8.5-2l-0.7,0.4L3.9,44.4C1.5,45.9,0,48.5,0,51.3v1.8c0,3.5,2.8,6.4,6.4,6.4h12h24.2"/>
  </g>
  <g fill="#27A9BF">
    <path d="M43.8,40.3c0.5-0.5,1-0.4,1.3,0.2l0.1,0.4c0.2,0.7,0,1.7-0.4,2.2l-4.7,5.4c-0.5,0.5-0.5,1.4,0,2l4.7,5.4c0.5,0.5,0.7,1.5,0.4,2.2L45,58.4c-0.2,0.7-0.8,0.8-1.3,0.2l-5.5-6.5c-0.5-0.5-0.8-1.5-0.8-2.3V49c0-0.7,0.4-1.8,0.8-2.3L43.8,40.3z"/>
    <path d="M57.8,44.5c0.4,0.6,0.6,2.3,0.6,2.3c0,0.4,0.1,1.1,0.1,1.5V57c0,0.4-0.3,0.8-0.8,0.8H57c-0.4,0-0.8-0.3-0.8-0.8v-8.3c0-0.4,0-1.1,0-1.5c0,0,0-0.5-0.1-0.8S55.8,46,55.5,46c-0.6,0-1.2,0.8-1.2,0.8c-0.3,0.3-0.5,0.9-0.5,1.4v9c0,0.4-0.3,0.8-0.8,0.8h-0.5c-0.4,0-0.8-0.3-0.8-0.8v-8.3c0-0.4,0-1.1,0-1.5c0,0,0-0.5-0.1-0.8s-0.3-0.4-0.6-0.4c-0.6,0-1.2,0.8-1.2,0.8c-0.3,0-0.6,0.6-0.6,1v9c0,0.4-0.3,0.8-0.8,0.8h-0.7c-0.4,0-0.8-0.3-0.8-0.8V44.7c0-0.4,0.3-0.8,0.8-0.8H48c0.4,0,0.8,0.3,0.8,0.7s0.3,0.5,0.5,0.1c0,0,0.3-0.4,0.7-0.8c0.4-0.3,0.8-0.5,1.4-0.5c1,0,1.6,1.1,1.6,1.1c0.2,0.4,0.6,0.4,0.8,0.1c0,0,0.3-0.4,0.7-0.7s0.9-0.5,1.4-0.5C56.8,43.6,57.4,43.9,57.8,44.5z"/>
    <path d="M62.1,38.2c0.4-0.1,0.8,0.2,0.8,0.6V57c0,0.4-0.3,0.8-0.8,0.8h-0.8c-0.4,0-0.8-0.3-0.8-0.8V39.2c0-0.4,0.3-0.8,0.8-0.9L62.1,38.2z M69.4,44c0.4,0,0.6,0.3,0.3,0.6l-3.6,4.9c-0.2,0.3-0.3,0.9,0,1.3l4.1,6.4c0.2,0.4,0.1,0.6-0.3,0.6h-1.4c-0.4,0-0.9-0.3-1.2-0.6l-3.9-6.3c-0.2-0.4-0.2-0.9,0-1.3l3.5-5c0.2-0.3,0.8-0.6,1.2-0.6C68.1,44,69.4,44,69.4,44z"/>
    <path d="M73.9,59c-0.2,0.6-1,1-1.6,0.8s-1-0.8-0.8-1.4l7.4-18.7c0.2-0.6,1-1,1.6-0.8c0.8,0.2,1,0.8,0.8,1.4L73.9,59z"/>
    <path d="M82.8,40.7c0.2-0.7,0.8-0.8,1.2-0.2l5.6,6.5c0.5,0.5,0.8,1.5,0.8,2.3V50c0,0.7-0.4,1.7-0.8,2.3l-5.5,6.5c-0.5,0.5-1,0.4-1.3-0.2l-0.1-0.4c-0.2-0.7-0.1-1.6,0.4-2.2l4.7-5.3c0.5-0.5,0.5-1.4,0-1.9l-4.7-5.3c-0.4-0.5-0.6-1.5-0.4-2.2L82.8,40.7z"/>
  </g>
</svg>
