<?xml version="1.0" encoding="utf-8"?>
<!-- Generator: Adobe Illustrator 23.0.1, SVG Export Plug-In . SVG Version: 6.00 Build 0)  -->
<svg version="1.1" id="Слой_1" xmlns="http://www.w3.org/2000/svg" xmlns:xlink="http://www.w3.org/1999/xlink" x="0px" y="0px"
	 viewBox="0 0 224.5 249" enable-background="new 0 0 224.5 249" xml:space="preserve">
<g>
	<polygon display="none" fill="#FFFFFF" points="112.4,-20.3 240.4,52.1 240.4,196.9 112.4,269.3 -15.6,196.9 -15.6,52.1 	"/>
	<path fill="#8ED6FB" d="M217.6,191.9L116.7,249v-44.4l62.9-34.6L217.6,191.9z M224.5,185.7V66.3l-36.9,21.3v76.8L224.5,185.7z
		 M6.9,191.9L107.8,249v-44.4L44.9,170L6.9,191.9L6.9,191.9z M0,185.7V66.3l36.9,21.3v76.8L0,185.7L0,185.7z M4.3,58.5L107.8,0v43
		L41.5,79.5L41,79.7L4.3,58.5L4.3,58.5z M220.2,58.5L116.7,0v43L183,79.5l0.5,0.3L220.2,58.5L220.2,58.5z"/>
	<path fill="#1C78C0" d="M107.8,194.5l-62-34.1V92.7l62,35.8V194.5L107.8,194.5z M116.7,194.5l62-34.1V92.7l-62,35.8V194.5z
		 M49.9,84.9l62.3-34.2l62.3,34.2l-62.3,35.9L49.9,84.9L49.9,84.9z"/>
</g>
</svg>
