<?xml version="1.0" encoding="utf-8"?>
<!-- Generator: Adobe Illustrator 23.0.1, SVG Export Plug-In . SVG Version: 6.00 Build 0)  -->
<svg version="1.1" id="Слой_1" xmlns="http://www.w3.org/2000/svg" xmlns:xlink="http://www.w3.org/1999/xlink" x="0px" y="0px"
	 viewBox="0 0 256.8172302 286.1875" enable-background="new 0 0 256.8172302 286.1875" xml:space="preserve">
<path fill="#40826E" d="M128.4086151,286.1855469c-5.5742111,0-11.1464767-1.2539062-15.4902267-3.7617188l-97.4282227-56.25
	C6.8041277,221.1591797-0.0000714,209.3740234-0.0000714,199.34375v-112.5c0-10.0297852,6.8041992-21.8149414,15.4902344-26.8300781
	l0,0l97.4282227-56.25c8.6860352-5.0146484,22.2939377-5.0146484,30.9804611,0l97.4277344,56.25
	c8.6865234,5.0151367,15.4902496,16.800293,15.4902496,26.8300781v112.5c0,10.0302734-6.8037262,21.8154297-15.4902496,26.8300781
	l-97.4277344,56.25C139.556076,284.9306641,133.9818573,286.1855469,128.4086151,286.1855469z M20.4901638,68.6738281
	C14.9017839,71.9003906,9.9999285,80.3911133,9.9999285,86.84375v112.5c0,6.453125,4.9018555,14.9433594,10.4902353,18.1699219
	l97.4282227,56.25c5.5878906,3.2255859,15.3915939,3.2275391,20.9804611,0l97.4277344-56.25
	c5.5878906-3.2265625,10.4902344-11.7167969,10.4902344-18.1699219v-112.5c0-6.4526367-4.9023438-14.9433594-10.4902344-18.1699219
	l-97.4277344-56.25c-5.5878906-3.2265625-15.3920822-3.2255859-20.9804611,0L20.4901638,68.6738281z"/>
<g>
	<g>
		<path fill="#40826E" d="M48.739254,104.7266083c1.8164673-2.0646973,4.0437431-1.6295319,4.949501,0.9670258l0.5544739,1.5895157
			c0.9057617,2.5965576,0.1413956,6.3931808-1.6985893,8.4369354l-18.6909828,20.7609787
			c-1.8399849,2.0437622-1.8359489,5.3844452,0.0089684,7.4237671l18.6730461,20.6405487
			c1.8449173,2.0393066,2.5757065,5.8188019,1.6239777,8.3988495l-0.6089935,1.6509399
			c-0.9517288,2.5800629-3.2100601,2.9959869-5.0185165,0.9242706L26.6923256,150.500412
			c-1.8084545-2.0717163-3.2880993-6.0167542-3.2880993-8.7667542v-3.2099457c0-2.75,1.4862003-6.6892853,3.3026657-8.7539825
			L48.739254,104.7266083z"/>
	</g>
	<g>
		<path fill="#40826E" d="M104.0672836,120.0003738c1.6273422,2.3467865,2.1899643,9.0154953,2.1899643,9.0154953
			c0.13871,1.644165,0.2522049,4.339386,0.2522049,5.9893799v34.5661621c0,1.6500092-1.3500061,3-3,3h-2.6339111
			c-1.6499939,0-3-1.3499908-3-3v-33.0136566c0-1.6499939-0.0495453-4.3490906-0.1100998-5.9979858
			c0,0-0.0786438-2.1413422-0.456131-3.3147354c-0.3797913-1.1723022-1.2072754-1.7589951-2.4859009-1.7589951
			c-2.4421692,0-4.9358215,3.1363373-4.9358215,3.1363373c-1.0268631,1.2915344-1.8670349,3.6982269-1.8670349,5.3482361v35.6007996
			c0,1.6500092-1.3499985,3-3,3h-1.935318c-1.6500015,0-3-1.3499908-3-3v-33.0136566
			c0-1.6499939-0.0496979-4.3490906-0.1104355-5.9979706c0,0-0.0788879-2.1413574-0.4563751-3.3147507
			c-0.3792114-1.1723022-1.2072678-1.7589951-2.4859009-1.7589951c-2.4415894,0-4.9352417,3.1363373-4.9352417,3.1363373
			c-1.0268707,1.2915344-1.8670349,3.6982269-1.8670349,5.3482361v35.6007996c0,1.6500092-1.3499985,3-3,3h-2.7207947
			c-1.6500015,0-3.0000038-1.3499908-3.0000038-3v-48.6403198c0-1.6500015,1.3500023-3,3.0000038-3h1.3259277
			c1.6500015,0,3.1569214,1.3271942,3.3487167,2.9493256s1.1168518,1.8391571,2.0556793,0.4822845
			c0,0,1.2283554-1.7753143,2.7406158-3.0175323c1.5111008-1.2422256,3.3139572-1.862793,5.4068375-1.862793
			c4.0689316,0,6.4133606,4.2994156,6.4133606,4.2994156c0.789917,1.4486313,2.2408981,1.5499039,3.2243958,0.2250519
			c0,0,1.1177902-1.5057602,2.7462921-2.713028c1.6273422-1.2061691,3.4883194-1.8114395,5.5817642-1.8114395
			C100.200325,116.4823761,102.4387894,117.6557693,104.0672836,120.0003738z"/>
	</g>
	<g>
		<path fill="#40826E" d="M121.2119827,95.0781555c1.6328506-0.2372513,2.9688187,0.9186325,2.9688187,2.568634v71.9246216
			c0,1.6500092-1.3499985,3-3,3h-3.2563095c-1.6500015,0-3-1.3499908-3-3V98.9917145
			c0-1.6500015,1.335968-3.1941147,2.9688263-3.431366L121.2119827,95.0781555z M150.1074677,117.9310913
			c1.6500092,0,2.2106476,1.0951767,1.2458649,2.4337234l-14.0947571,19.5552902
			c-0.9647675,1.3385468-1.0242615,3.5694122-0.1321869,4.9574738l16.1761627,25.1700897
			c0.8920593,1.3880615,0.2719421,2.5237427-1.378067,2.5237427h-5.3209076c-1.6499939,0-3.7173767-1.1436157-4.5941925-2.5413666
			l-15.5723648-24.8245697c-0.8768082-1.3977509-0.813858-3.6429901,0.1398849-4.9894257l14.0514374-19.8368988
			c0.9537506-1.3464279,3.0840759-2.4480591,4.7340851-2.4480591H150.1074677z"/>
	</g>
	<g>
		<path fill="#40826E" d="M167.0799103,182.1712036c-0.8966522,2.5997009-3.1121063,3.7953186-4.9232483,2.6569214
			c-1.8111267-1.1383972-2.5585327-4.196579-1.6608887-6.7959595l28.112793-81.4080887
			c0.897644-2.5993652,3.097229-3.7715988,4.8879395-2.60495c1.7907257,1.1666412,2.5222321,4.2482071,1.6255798,6.8479233
			L167.0799103,182.1712036z"/>
	</g>
	<g>
		<path fill="#40826E" d="M203.2388153,105.7059097c0.8861694-2.6033096,3.0974426-3.0440216,4.9139404-0.9793625
			l22.0332184,25.0432434c1.8164978,2.0646515,3.3027191,6.0039215,3.3027191,8.7539215v3.2099457
			c0,2.75-1.4796448,6.6950378-3.2881012,8.7667542l-21.8398132,25.0190277
			c-1.8084564,2.0717163-4.0754395,1.6590118-5.0377502-0.9171295l-0.5710144-1.5286102
			c-0.9622955-2.5761414-0.2466736-6.3582764,1.5903015-8.4047394l18.6267548-20.7511139
			c1.8369598-2.0464783,1.8289185-5.3879852-0.0178833-7.4255829l-18.5909882-20.5116196
			c-1.8468018-2.0375977-2.632782-5.8347015-1.7466125-8.4380035L203.2388153,105.7059097z"/>
	</g>
</g>
</svg>
