<?xml version="1.0" encoding="utf-8"?>
<!-- Generator: Adobe Illustrator 23.0.1, SVG Export Plug-In . SVG Version: 6.00 Build 0)  -->
<svg version="1.1" id="Слой_1" xmlns="http://www.w3.org/2000/svg" xmlns:xlink="http://www.w3.org/1999/xlink" x="0px" y="0px"
	 viewBox="0 0 88.7 37.9" enable-background="new 0 0 88.7 37.9" xml:space="preserve">
<path fill="#214674" d="M3.8,24.1c0-1.5-1-3.1-3.8-3.2v-3.8c2.8-0.1,3.8-1.7,3.8-3.2c0-2.7-0.4-4.4-0.4-7.6C3.4,1.5,5.1,0,9,0h10.4
	v3.5h-8.4c-1.8,0-2.4,0.6-2.4,3l0.2,7.1c0,3.4-1.1,4.6-3.2,5.2V19c2.2,0.5,3.2,1.8,3.2,5.2l-0.2,7.1c0,2.4,0.5,3.1,2.4,3.1h0.9v3.3
	H9c-3.9,0-5.6-1.5-5.6-6.3C3.4,28.4,3.8,26.8,3.8,24.1L3.8,24.1z M13,0.3h6.5v24.3c0,1.4,0.6,1.8,1.2,1.8c0.2,0,0.4,0,0.8-0.1
	l0.8,4.8c-0.8,0.3-1.8,0.5-3.2,0.5c-4.4,0-5.9-2.9-5.9-7.3L13,0.3z M31.2,8.8c6.2,0,9.3,4.5,9.3,10.5c0,1.2-0.1,2.2-0.2,2.7H27
	c0.5,3.3,2.8,4.8,5.7,4.8c1.6,0,3.1-0.4,4.8-1.4l2.2,3.9c-2.3,1.5-5.2,2.5-7.8,2.5c-6.3,0-11-4.2-11-11.5
	C20.8,13.2,25.9,8.8,31.2,8.8L31.2,8.8z M35,17.9c0-2.5-1.1-4.3-3.7-4.3c-2.1,0-3.8,1.4-4.2,4.3H35z M44.2,24.6
	c1.9,1.5,3.8,2.3,5.6,2.3c1.9,0,2.8-0.8,2.8-1.8c0-1.4-2.2-2.2-4.4-3c-2.6-1-5.7-2.8-5.7-6.4c0-4,3.3-6.8,8.3-6.8
	c3.3,0,5.8,1.4,7.7,2.8l-2.9,3.9c-1.6-1.2-3-1.8-4.6-1.8s-2.5,0.6-2.5,1.7c0,1.4,2.1,1.9,4.3,2.8c2.8,1,5.9,2.6,5.9,6.6s-3.1,7-9,7
	c-2.8,0-6.2-1.2-8.3-3L44.2,24.6z M61.8,24.6c1.9,1.5,3.8,2.3,5.6,2.3c1.9,0,2.8-0.8,2.8-1.8c0-1.4-2.2-2.2-4.4-3
	c-2.6-1-5.7-2.8-5.7-6.4c0-4,3.3-6.8,8.3-6.8c3.3,0,5.8,1.4,7.7,2.8l-2.9,3.9c-1.6-1.2-3-1.8-4.6-1.8S66,14.4,66,15.4
	c0,1.4,2.1,1.9,4.2,2.8c2.8,1,5.9,2.6,5.9,6.6s-3.1,7-9,7c-2.8,0-6.2-1.2-8.3-3L61.8,24.6z M77.8,34.4c1.8,0,2.4-0.6,2.4-3.1
	c0-2.4-0.2-4.5-0.2-7.1c0-3.4,1.1-4.6,3.2-5.2v-0.2c-2.2-0.5-3.2-1.8-3.2-5.2c0-2.6,0.2-4.9,0.2-7.1c0-2.4-0.4-3-2.4-3H77V0h2.8
	c3.9,0,5.6,1.5,5.6,6.3c0,3-0.4,4.8-0.4,7.6c0,1.5,1,3.1,3.8,3.2v3.8c-2.8,0.1-3.8,1.7-3.8,3.2c0,2.8,0.4,4.4,0.4,7.6
	c0,4.8-1.7,6.3-5.6,6.3H77v-3.5L77.8,34.4z"/>
</svg>
