<?xml version="1.0" encoding="utf-8"?>
<!-- Generator: Adobe Illustrator 23.0.1, SVG Export Plug-In . SVG Version: 6.00 Build 0)  -->
<svg version="1.1" id="Layer_1" xmlns="http://www.w3.org/2000/svg" xmlns:xlink="http://www.w3.org/1999/xlink" x="0px" y="0px"
	 viewBox="0 0 365 224.5" enable-background="new 0 0 365 224.5" xml:space="preserve">
<g>
	<path fill="#EFCCA3" d="M305.4,70.1c-0.6-12.5,1.1-23.6-4.6-33C287.2,13.7,253,0,184.6,0v2h-1.4h1.4V0C116.3,0,80.4,13.7,66.7,37.3
		c-5.4,9.7-4.8,20.5-5.7,33c-0.6,10-5.1,20.5-3.1,31.9c2.3,14.8,3.1,29.6,5.4,43.3c1.7,11.1,17.1,20.5,18.5,31.1
		c4,29.1,34.2,42.4,102.6,42.4v2.3h-1.7h0.3h1.7v-2.3c68.4,0,97.4-13.4,101.1-42.4c1.4-10.8,15.7-19.9,17.4-31.1
		c2.3-13.7,3.1-28.5,5.4-43.3C310.6,90.9,306,80.1,305.4,70.1z"/>
	<path fill="#CCAC8D" d="M183.5,80.3c12.2,0.3,20.8,8,28.8,15.1c9.4,8.3,25.4,14,31.9,21.1c6.6,7.1,15.1,14.2,18.2,25.4
		c3.1,11.1,4,25.4,4,29.1c0,3.7,2,2.8,7.7,0c13.4-6.6,28.2-24.2,28.2-24.2c-1.7,11.1-16.2,21.1-17.7,31.6
		c-3.4,29.1-31.6,43-101.4,43h-0.3h1.7"/>
	<path fill="#CCAC8D" d="M228.5,58.1c2.6,8.8,11.7,38.7-6,28.8c0,0,7.4,4.3,12,20.5c4.8,16.2,16.5,18.2,16.5,18.2s19.1,3.7,33.3-8.5
		c12-10.3,14-28.5,8.8-42.4C288,61,278.9,56.7,265.5,53.8C252.2,50.7,225.4,48.1,228.5,58.1z"/>
	<ellipse transform="matrix(0.8858 -0.464 0.464 0.8858 -12.0752 132.1112)" cx="262.4" cy="90.6" rx="25.1" ry="25.1"/>
	<path fill="#FFFFFF" d="M255.9,72.9c3.6,0,6.6,2.9,6.6,6.6c0,3.6-2.9,6.6-6.6,6.6c-3.6,0-6.6-2.9-6.6-6.6
		C249.3,75.9,252.2,72.9,255.9,72.9z"/>
	<path fill="#EFCCA3" d="M224.2,89.5c0,0,22.5,15.4,34.8,30.5c12.2,15.1,12,17.9,12,17.9l-8.8,4c0,0-12.5-23.6-27.9-32.5
		c-15.7-8.8-17.4-16.2-17.4-16.2L224.2,89.5z"/>
	<path fill="#CCAC8D" d="M184.4,80.3c-12.2,0.3-21.4,8-29.6,15.1c-9.4,8.3-25.9,14-32.5,21.1c-6.6,7.1-15.4,14.2-18.5,25.4
		c-3.1,11.1-4.3,25.4-4.3,29.1c0,3.7,0.6,4-7.7,0c-13.4-6.3-28.2-24.2-28.2-24.2c1.7,11.1,16.2,21.1,17.7,31.6
		c4,29.1,32.2,43,102,43h0.3h1.1"/>
	<path fill="#56332B" d="M250.4,128.5C236.8,111.7,214.8,96,184.4,96h-0.3c-30.5,0-52.4,15.7-66.1,32.5
		c-14.2,17.4-13.1,24.2-13.1,40.7c0,59.8,21.1,42.7,35,50.1c14.2,7.1,29.1,4.8,44.2,4.8h0.3c15.4,0,29.9,2,44.2-5.1
		c14-7.1,35,10.5,35-49.3C263.8,153.3,264.7,145.9,250.4,128.5z"/>
	<path fill="#442823" d="M182.9,110.8c0,0-2,27.6-6,33l7.4-1.7L182.9,110.8z"/>
	<path fill="#442823" d="M184.9,110.8c0,0,2,27.6,6,33l-7.4-1.7L184.9,110.8z"/>
	<path fill="#56332B" d="M161,104.3c-2.8-6.6,7.4-17.1,23.6-17.4c16.2,0,26.5,10.5,23.6,17.4c-2.8,6.8-13.1,8.8-23.6,9.1
		C174.4,113.1,163.8,111.1,161,104.3z"/>
	<path d="M184.6,110.8c0-1.1,9.7-1.4,14.8-4.8c0,0-10.5,3.4-12.8,2c-2.3-1.1-2.8-4.6-2.8-4.6s-0.9,3.4-2.6,4.6c-2,1.1-14-2-14-2
		s16,4,16,4.8c0,0.9-0.3,3.7-0.3,5.7c0,7.1,0,24.8,1.1,26.2c1.7,2.6,1.1-19.1,1.1-26.2C184.9,114.2,184.9,112,184.6,110.8z"/>
	<path fill="#7F4A41" d="M185.2,149c4.8,0,13.4,3.4,21.1,8.8c-7.4-8.3-16.2-14-21.1-14c-5.1,0-16,6.3-23.6,15.4
		C169.5,153,179.8,149,185.2,149z"/>
	<path fill="#442823" d="M183.2,199.4c-10.8,0-21.4-3.4-31.1-6c-2-0.6-4,0.9-6,0.3c-17.9-5.7-32.5-15.4-41.3-27.6c0,0.9,0,2,0,2.8
		c0,59.8,21.1,43,35,50.1c14.2,7.1,29.1,4.8,44.2,4.8h0.3c15.4,0,29.9,2,44.2-5.1c14-7.1,35,10.3,35-49.6c0-2.3,0-4.6,0.3-6.6
		c-8.3,13.4-23.4,23.9-42.2,30.2c-1.7,0.6-5.7-0.9-7.4-0.6C204,195.7,194.9,199.4,183.2,199.4z"/>
	<path fill="#442823" d="M156.1,167.2c0,0-7.1,21.4-2.3,30.8l-6.6-2.8C147.3,195.1,152.2,173.5,156.1,167.2z"/>
	<path fill="#442823" d="M212.6,167.2c0,0,7.1,21.4,2.3,30.8l6.6-2.8C221.4,195.1,216.3,173.5,212.6,167.2z"/>
	<path fill="#CCAC8D" d="M137.9,58.1c-2.6,8.8-11.7,38.7,6,28.8c0,0-7.4,4.3-12,20.5c-4.6,16.2-16.5,18.2-16.5,18.2
		s-19.1,3.7-33.3-8.5c-12-10.3-14-28.5-8.8-42.4c5.1-14,14.2-17.9,27.6-20.8C114.3,50.7,140.8,48.1,137.9,58.1z"/>
	<path d="M184.4,143.9c7.7,0,31.6,16.5,31.9,36.7c0-0.3,0-0.6,0-1.1c0-21.1-19.4-37.9-31.9-37.9c-12.5,0-31.9,17.1-31.9,37.9
		c0,0.3,0,0.6,0,1.1C152.7,160.4,176.7,143.9,184.4,143.9z"/>
	<path fill="#331712" d="M188.4,96.1c1.2-0.3,2.7,1.3,3.3,3.6c0.6,2.3,0.1,4.4-1.1,4.7c-1.2,0.3-2.7-1.3-3.3-3.6
		S187.2,96.5,188.4,96.1z"/>
	<path fill="#331712" d="M178.5,96.2c1.2,0.4,1.6,2.5,0.9,4.8c-0.7,2.3-2.2,3.8-3.4,3.4c-1.2-0.4-1.6-2.5-0.9-4.8
		C175.7,97.4,177.3,95.8,178.5,96.2z"/>
	<ellipse transform="matrix(0.9263 -0.3769 0.3769 0.9263 -26.3683 46.4208)" cx="105.4" cy="90.6" rx="25.1" ry="25.1"/>
	<path fill="#FFFFFF" d="M112,72.9c3.6,0,6.6,2.9,6.6,6.6c0,3.6-2.9,6.6-6.6,6.6c-3.6,0-6.6-2.9-6.6-6.6
		C105.4,75.9,108.4,72.9,112,72.9z"/>
	<path fill="#7F4A41" d="M191.8,90.9c0-0.3-6.6,2.8-8.3,3.1c-1.7-0.3-8.3-3.4-8.3-3.1c0,0,5.4,0,8.3,0S191.8,90.9,191.8,90.9z"/>
	<path fill="#EFCCA3" d="M141.9,89.5c0,0-22.5,15.4-34.8,30.5c-12.2,15.1-12,17.9-12,17.9l8.8,4c0,0,12.5-23.6,27.9-32.5
		c15.4-8.8,17.4-16.2,17.4-16.2L141.9,89.5z"/>
	<path fill="#CCAC8D" d="M92.6,43.9c0,0-7.7,21.1-24.8,29.9C67.8,73.8,94.6,70.7,92.6,43.9z"/>
	<path fill="#CCAC8D" d="M272.4,43.9c0,0,7.7,21.1,24.8,29.9C297.2,73.8,270.4,70.7,272.4,43.9z"/>
	<path fill="#CCAC8D" d="M223.7,83.2c0,0-16.8-17.7-39.3-18.2c-0.3,0,0.6,0,0.3,0s0.3,0,0.3,0c-22.8,0.6-39.3,18.2-39.3,18.2
		c19.7-13.7,36.5-13.4,39.3-13.4C184.6,69.8,204,69.5,223.7,83.2z"/>
	<path fill="#CCAC8D" d="M204,46.2c0,0-8.5-12-19.9-12.2h0.3h0.3c-8.5,0.3-19.7,12.2-19.7,12.2c9.7-9.4,19.7-9.1,19.7-9.1
		S194,36.7,204,46.2z"/>
	<path fill="#CCAC8D" d="M105.4,133.6c0,0-13.4,6.6-23.1,2.6h-0.3c-8.5-4.8-12.8-19.4-12.8-19.4S77.8,142.4,105.4,133.6z"/>
	<path fill="#CCAC8D" d="M261.6,133.6c0,0,13.4,6.6,23.1,2.6c11.4-4.8,13.1-19.4,13.1-19.4S289.2,142.4,261.6,133.6z"/>
	<path fill="#CCAC8D" d="M120.8,42.4c7.4-1.4,19.7-1.7,29.3,1.4c12.2,4.3,2.3,19.9,4.8,20.8c2.6,0.9,6-10.8,28.8-9.7
		c23.1,1.1,25.6,11.4,28.8,9.7c3.1-1.7-3.1-28.5,31.3-22.2c0,0-36.2-9.7-34.5,16.5c0,0-20.8-16-49.9-1.7
		C159.9,57.3,167.3,32.8,120.8,42.4z"/>
	<path fill="#CCAC8D" d="M247,42.4c0.6,0,0.9,0.3,1.1,0.3S247.9,42.4,247,42.4z"/>
	<path fill="#CCAC8D" d="M247,42.4"/>
	<path fill="#CCAC8D" d="M110.9,7.4c0,0-30.8,38.7-35.3,53.6c-4.6,15.1-8,76.9-12,85.7l-14.2-61l26.2-63.5L110.9,7.4z"/>
	<path fill="#CCAC8D" d="M255.6,7.4c0,0,30.8,38.7,35.3,53.6c4.6,15.1,8,76.9,12,85.7l14.2-61l-26.2-63.5L255.6,7.4z"/>
	<path fill="#56332B" d="M254.1,7.4c0,0,33,27.6,42.7,59.5c9.7,31.9,5.7,70.7,13.1,75.5c10.5,6.8,22.5-33.9,26.5-38.2
		c6.3-6.8,27.1-24.2,28.5-27.3c1.4-3.1-42.2-50.7-61.2-60.1C280.6,6,252.2,5.1,254.1,7.4z"/>
	<path fill="#442823" d="M282.4,24.5c0,0,39,49.9,38.5,112l15.7-31.9C336.2,104.6,322.5,63.8,282.4,24.5z"/>
	<path fill="#56332B" d="M110.9,7.4c0,0-33,27.6-42.7,59.5s-5.7,70.7-13.1,75.5c-10.5,6.8-22.5-33.9-26.5-38.2
		C22.3,97.4,1.5,80.1,0,76.9c-1.4-3.1,42.2-50.7,61.2-60.1C84.4,6,112.8,5.1,110.9,7.4z"/>
	<path fill="#442823" d="M82.6,24.5c0,0-39,49.9-38.5,112l-15.4-31.9C28.8,104.6,42.5,63.8,82.6,24.5z"/>
	<path fill="#CCAC8D" d="M61.6,137.6c0,0,2.8,15.4,7.4,20.2c4.6,4.8,1.4-3.7,1.4-3.7s-4.8-2.6-4-22.2
		C67.3,112.2,61.6,137.6,61.6,137.6z"/>
	<path fill="#CCAC8D" d="M304.6,137.6c0,0-2.8,15.4-7.4,20.2c-4.6,4.8-1.4-3.7-1.4-3.7s4.8-2.6,4-22.2
		C298.9,112.2,304.6,137.6,304.6,137.6z"/>
	<path fill="#442823" d="M154.7,123.6c1.3,0,2.3,1,2.3,2.3c0,1.3-1,2.3-2.3,2.3s-2.3-1-2.3-2.3C152.4,124.7,153.5,123.6,154.7,123.6
		z"/>
	<path fill="#442823" d="M141.6,137.3c1.3,0,2.3,1,2.3,2.3c0,1.3-1,2.3-2.3,2.3c-1.3,0-2.3-1-2.3-2.3
		C139.3,138.3,140.4,137.3,141.6,137.3z"/>
	<path fill="#442823" d="M137.3,123.6c1.3,0,2.3,1,2.3,2.3c0,1.3-1,2.3-2.3,2.3c-1.3,0-2.3-1-2.3-2.3
		C135.1,124.7,136.1,123.6,137.3,123.6z"/>
	<path fill="#442823" d="M210.3,123.6c1.3,0,2.3,1,2.3,2.3c0,1.3-1,2.3-2.3,2.3c-1.3,0-2.3-1-2.3-2.3
		C208,124.7,209,123.6,210.3,123.6z"/>
	<path fill="#442823" d="M223.4,137.3c1.3,0,2.3,1,2.3,2.3c0,1.3-1,2.3-2.3,2.3c-1.3,0-2.3-1-2.3-2.3
		C221.1,138.3,222.1,137.3,223.4,137.3z"/>
	<path fill="#442823" d="M227.7,123.6c1.3,0,2.3,1,2.3,2.3c0,1.3-1,2.3-2.3,2.3c-1.3,0-2.3-1-2.3-2.3
		C225.4,124.7,226.4,123.6,227.7,123.6z"/>
</g>
</svg>
