<?xml version="1.0" encoding="utf-8"?>
<!-- Generator: Adobe Illustrator 23.0.1, SVG Export Plug-In . SVG Version: 6.00 Build 0)  -->
<svg version="1.1"
	 id="svg30" inkscape:version="0.92.3 (2405546, 2018-03-11)" sodipodi:docname="zeplinio-ar21.svg" xmlns:cc="http://creativecommons.org/ns#" xmlns:dc="http://purl.org/dc/elements/1.1/" xmlns:inkscape="http://www.inkscape.org/namespaces/inkscape" xmlns:rdf="http://www.w3.org/1999/02/22-rdf-syntax-ns#" xmlns:sodipodi="http://sodipodi.sourceforge.net/DTD/sodipodi-0.dtd" xmlns:svg="http://www.w3.org/2000/svg"
	 xmlns="http://www.w3.org/2000/svg" xmlns:xlink="http://www.w3.org/1999/xlink" x="0px" y="0px" viewBox="0 0 41.6 32.7"
	 enable-background="new 0 0 41.6 32.7" xml:space="preserve">
<g id="g891" transform="matrix(1.2117164,0,0,1.2117164,-46.63877,7.1317533)">
	<path id="path4" inkscape:connector-curvature="0" fill-rule="evenodd" clip-rule="evenodd" fill="#F89920" d="M42.1,13.3l-3.6-4
		l11-4l1.7,4.7L42.1,13.3z"/>
	<path id="path6" inkscape:connector-curvature="0" fill-rule="evenodd" clip-rule="evenodd" fill="#FFBE22" d="M42.1,13.2l-0.2,5.4
		l11-4l-1.7-4.7L42.1,13.2z"/>
	<path id="path8" inkscape:connector-curvature="0" fill-rule="evenodd" clip-rule="evenodd" fill="#F0670A" d="M72.6,2.2
		c1.6,4.5-3.5,10.5-11.3,13.4c-7.9,2.9-15.6,1.5-17.3-3L72.6,2.2z"/>
	<path id="path10" inkscape:connector-curvature="0" fill-rule="evenodd" clip-rule="evenodd" fill="#FFD00E" d="M72.6,2.2
		c-1.7-4.5-9.4-5.8-17.3-3C47.4,2.1,42.4,8.1,44,12.6L72.6,2.2z"/>
	<path id="path12" inkscape:connector-curvature="0" fill-rule="evenodd" clip-rule="evenodd" fill="#F89920" d="M72.6,2.2
		c1,3-4.5,7.8-12.3,10.6c-7.8,2.8-15.1,2.7-16.3-0.2L72.6,2.2z"/>
	<path id="path14" inkscape:connector-curvature="0" fill-rule="evenodd" clip-rule="evenodd" fill="#FFBE22" d="M72.6,2.2
		c-1.2-3-8.4-3.1-16.3-0.2C48.4,4.9,43,9.6,44,12.6L72.6,2.2z"/>
	<path id="path16" inkscape:connector-curvature="0" fill="#F0670A" d="M59.4-1.9c-0.7-2.6-1.6-4-2.6-4c-1.9,0.1-2.5,6-1.9,13.6
		c0.6,7.7,2.2,13.4,4.2,13.4c1.2,0,1.8-1.9,2.1-5.2c0-0.1-0.1,0-0.1-0.1c0,0,0-0.1-0.1-0.1l-0.3,0c-0.2,3.2-0.8,5-1.7,5
		c-1.6,0-3.2-5.7-3.8-13c-0.6-7.3,0-13.1,1.5-13.2c0.7,0,1.5,1.3,2.2,3.7C59-1.8,59.4-1.9,59.4-1.9z"/>
	<path id="path18" inkscape:connector-curvature="0" fill="#F0670A" d="M50.1-3.7c-1.6,1,0.8,6.4,5.1,12.7
		c4.4,6.3,8.6,10.5,10.3,9.5c0.9-0.6,0.7-2.3-0.5-5c0-0.1-0.2-0.1-0.3-0.1c-0.1,0-0.1,0.2-0.1,0.3c0,0,0,0,0,0
		c1.1,2.5,1.4,4.1,0.7,4.5c-1.4,0.8-5.6-3.3-9.8-9.4c-4.1-6-6.5-11.4-5.3-12.2c0.7-0.4,2.3,0.6,4.4,2.7c0,0,0.2,0.2,0.2,0.2
		c0.1,0,0-0.1,0.1-0.2C55-0.8,55-0.9,54.9-1c0,0,0,0,0,0C52.7-3.2,51-4.3,50.1-3.7L50.1-3.7z"/>
</g>
</svg>
